<?xml version="1.0" standalone="no"?>
<!DOCTYPE svg PUBLIC "-//W3C//DTD SVG 1.1//EN" "http://www.w3.org/Graphics/SVG/1.1/DTD/svg11.dtd" >
<svg xmlns="http://www.w3.org/2000/svg">
    <defs>
        <font id="">
            <font-face font-family=""
                       units-per-em="1000"
                       ascent="920"
                       descent="-230"
                       bbox="0 -200 1005 801"
                    />
            <missing-glyph horiz-adv-x="0" />
            
            <glyph glyph-name="(" unicode="&#x28;" horiz-adv-x="345" d=" M310,-177 Q303,-177 301.5,-176.5 Q300,-176 296,-171 Q205,-57 161,60 Q117,177 117,302 Q117,426 161,543 Q205,660 296,775 Q300,780 301.5,780.5 Q303,781 308,781 L336,781 Q342,781 342,780 Q342,779 339,774 Q182,528 182,302 Q182,187 222,70 Q262,-47 340,-170 Q345,-177 335,-177"/> 
            <glyph glyph-name=")" unicode="&#x29;" horiz-adv-x="265" d=" M47,-177 Q38,-177 43,-170 Q121,-47 160.5,70 Q200,187 200,302 Q200,416 161,533.5 Q122,651 44,774 Q41,779 41,780 Q41,781 46,781 L74,781 Q79,781 80.5,780.5 Q82,780 87,775 Q178,660 221.5,543 Q265,426 265,302 Q265,177 221.5,60 Q178,-57 87,-171 Q82,-176 80.5,-176.5 Q79,-177 72,-177"/> 
            <glyph glyph-name="*" unicode="&#x2A;" horiz-adv-x="505" d=" M501,382 Q505,371 503.5,368.5 Q502,366 490,362 L348,321 Q372,292 395.5,264 Q419,236 442,207 Q448,199 448.5,196 Q449,193 441,187 L409,163 Q401,157 398.5,157 Q396,157 391,165 L307,293 Q287,263 265.5,231 Q244,199 225,168 Q219,158 216.5,157.5 Q214,157 205,164 L177,186 Q168,193 167.5,195.5 Q167,198 175,208 L265,321 L121,362 Q110,365 109,367.5 Q108,370 112,382 L121,414 Q124,425 126,426 Q128,427 139,423 L283,368 Q281,405 280,441 Q279,477 277,514 Q276,528 278,529 Q280,530 292,530 L321,530 Q334,530 336,528 Q338,526 337,514 L330,368 Q365,382 400.5,395 Q436,408 471,422 Q482,427 484.5,425.5 Q487,424 491,413"/> 
            <glyph glyph-name="+" unicode="&#x2B;" horiz-adv-x="601" d=" M601,308 Q601,294 598.5,292 Q596,290 582,290 L366,290 L366,74 Q366,61 364,59 Q362,57 349,57 L310,57 Q297,57 295,59 Q293,61 293,74 L293,290 L78,290 Q64,290 61.5,292 Q59,294 59,308 L59,344 Q59,358 61.5,360 Q64,362 78,362 L293,362 L293,576 Q293,590 295.5,592 Q298,594 312,594 L347,594 Q361,594 363.5,592 Q366,590 366,576 L366,362 L582,362 Q596,362 598.5,360 Q601,358 601,344"/> 
            <glyph glyph-name="," unicode="&#x2C;" horiz-adv-x="216" d=" M203,18 Q216,18 216,13.5 Q216,9 214,3 L148,-176 Q144,-184 140.5,-186.5 Q137,-189 130,-189 L88,-189 Q75,-189 78,-175 L125,1 Q127,7 131,12.5 Q135,18 146,18"/> 
            <glyph glyph-name="-" unicode="&#x2D;" horiz-adv-x="318" d=" M315,378 Q318,375 318,364 L318,320 Q318,309 316.5,307.5 Q315,306 304,306 L70,306 Q59,306 57.5,307.5 Q56,309 56,320 L56,364 Q56,375 57.5,376.5 Q59,378 70,378 L304,378"/> 
            <glyph glyph-name="." unicode="&#x2E;" horiz-adv-x="208" d=" M108,-40 Q108,-19 122.5,-4.5 Q137,10 158,10 Q179,10 193.5,-4.5 Q208,-19 208,-40 Q208,-61 193.5,-75.5 Q179,-90 158,-90 Q137,-90 122.5,-75.5 Q108,-61 108,-40"/> 
            <glyph glyph-name="/" unicode="&#x2F;" horiz-adv-x="375" d=" M360,718 Q372,718 373.5,716 Q375,714 371,702 L92,-104 Q88,-114 86,-115.5 Q84,-117 73,-117 L31,-117 Q19,-117 17.5,-115 Q16,-113 20,-102 L299,703 Q303,714 305.5,716 Q308,718 321,718"/> 
            <glyph glyph-name="0" unicode="&#x30;" horiz-adv-x="551" d=" M479,327 Q479,641 307,641 Q135,641 135,327 Q135,12 307,12 Q479,12 479,327 M551,327 Q551,-51 307,-51 Q61,-51 61,327 Q61,484 109,582 Q170,705 307,705 Q442,705 504,582 Q527,533 539,470 Q551,407 551,327"/> 
            <glyph glyph-name="1" unicode="&#x31;" horiz-adv-x="369" d=" M369,-33 Q369,-47 355,-47 L314,-47 Q300,-47 300,-33 L300,617 Q269,591 242,568 Q215,545 185,519 Q174,510 165,521 L145,545 Q142,550 142,555.5 Q142,561 147,565 L302,695 Q306,699 314,699 L341,699 Q362,699 365.5,695.5 Q369,692 369,671"/> 
            <glyph glyph-name="2" unicode="&#x32;" horiz-adv-x="512" d=" M90,-47 Q79,-47 73.5,-46.5 Q68,-46 65.5,-43.5 Q63,-41 62.5,-35.5 Q62,-30 62,-19 L63,3 Q63,16 71,24 L236,206 Q420,405 420,508 Q420,568 380,608 Q341,647 283,647 Q202,647 114,602 Q100,595 98,608 L92,641 Q89,658 102,662 Q153,685 194,696 Q235,707 278,707 Q374,707 431,659 Q495,607 495,511 Q495,474 477,430 Q459,386 427,338 Q407,310 370.5,265 Q334,220 287,169 Q252,131 217.5,92 Q183,53 148,15 L498,15 Q512,15 512,1 L512,-33 Q512,-47 498,-47"/> 
            <glyph glyph-name="3" unicode="&#x33;" horiz-adv-x="518" d=" M77,-30 Q62,-26 64,-7 L68,32 Q70,44 84,38 Q126,21 163.5,14 Q201,7 251,6 Q330,5 384,46 Q447,88 447,169 Q447,311 234,311 L182,311 Q169,311 169,322 L169,359 Q169,372 182,372 L187,372 Q294,372 354,395 Q445,430 445,521 Q445,550 429.5,574.5 Q414,599 388,616 Q364,630 334,638 Q304,646 271,646 Q237,646 196,637 Q155,628 117,613 Q104,608 102,621 L98,658 Q95,672 111,678 Q156,693 195,700 Q234,707 278,707 Q379,707 443,664 Q516,615 516,521 Q516,454 468,405 Q428,362 364,342 Q396,338 423.5,325 Q451,312 471,289 Q494,264 506,232.5 Q518,201 518,163 Q518,113 497.5,72.5 Q477,32 439,3 Q402,-24 354,-39.5 Q306,-55 247,-54 Q194,-53 155.5,-48 Q117,-43 77,-30"/> 
            <glyph glyph-name="4" unicode="&#x34;" horiz-adv-x="573" d=" M392,190 L392,636 Q318,524 245,413 Q172,302 97,190 M460,-33 Q460,-47 446,-47 L406,-47 Q392,-47 392,-33 L392,129 L62,129 Q41,129 37.5,132.5 Q34,136 34,157 L34,188 Q34,197 35,200 Q36,203 41,211 L360,687 Q366,696 368.5,697.5 Q371,699 382,699 L432,699 Q453,699 456.5,695.5 Q460,692 460,671 L460,190 L559,190 Q573,190 573,176 L573,143 Q573,129 559,129 L460,129"/> 
            <glyph glyph-name="5" unicode="&#x35;" horiz-adv-x="533" d=" M115,-32 Q101,-27 101,-14 L101,28 Q101,45 115,38 Q151,21 185.5,14 Q220,7 261,7 Q349,7 404,50 Q464,96 464,182 Q464,351 271,351 Q233,351 202.5,347 Q172,343 135,333 Q124,330 117,335.5 Q110,341 110,352 L116,671 Q116,692 119.5,695.5 Q123,699 144,699 L486,699 Q500,699 500,685 L500,652 Q500,638 486,638 L184,638 Q183,575 181.5,515 Q180,455 179,392 Q228,411 298,411 Q403,411 468,354 Q533,295 533,196 Q533,75 458,9 Q386,-54 261,-54 Q216,-54 183,-49 Q150,-44 115,-32"/> 
            <glyph glyph-name="6" unicode="&#x36;" horiz-adv-x="551" d=" M481,188 Q481,269 439,316 Q397,364 319,364 Q279,364 247,351.5 Q215,339 192.5,317 Q170,295 157.5,264 Q145,233 145,196 Q145,120 187,68 Q233,7 310,7 Q389,7 437,60 Q481,110 481,188 M507,627 Q484,635 454.5,640 Q425,645 396,645 Q260,645 195,547 Q140,465 138,322 Q160,362 202,390 Q254,427 319,427 Q410,427 472,379 Q551,318 551,193 Q551,87 486,17 Q420,-54 308,-54 Q68,-54 68,300 Q68,485 142,589 Q229,707 404,707 Q430,707 458.5,703 Q487,699 511,692 Q526,689 524,674 L522,637 Q522,630 517,627.5 Q512,625 507,627"/> 
            <glyph glyph-name="7" unicode="&#x37;" horiz-adv-x="527" d=" M242,-33 Q235,-47 222,-47 L172,-47 Q166,-47 163.5,-43 Q161,-39 164,-33 L455,638 L84,638 Q70,638 70,652 L70,685 Q70,699 84,699 L499,699 Q520,699 523.5,695.5 Q527,692 527,671 L527,646 Q527,638 524,632"/> 
            <glyph glyph-name="8" unicode="&#x38;" horiz-adv-x="555" d=" M460,525 Q460,582 410,615 Q366,646 307,646 Q243,646 199,614 Q151,582 151,525 Q151,473 201,431 Q215,418 238.5,403 Q262,388 294,373 Q302,369 307,369.5 Q312,370 322,375 Q386,410 423,448.5 Q460,487 460,525 M485,150 Q485,205 435,246 Q419,259 390,275 Q361,291 319,310 Q306,317 290,310 Q251,295 221,278.5 Q191,262 173,248 Q153,228 140.5,201.5 Q128,175 128,145 Q128,84 185,45 Q237,6 307,6 Q379,6 428,40 Q485,79 485,150 M555,145 Q555,96 534.5,57 Q514,18 476,-8 Q443,-30 400,-42 Q357,-54 307,-54 Q258,-54 215.5,-41 Q173,-28 138,-5 Q100,22 79,60.5 Q58,99 58,145 Q58,223 110,272 Q150,310 233,341 Q81,416 81,533 Q81,575 102,607.5 Q123,640 161,666 Q193,686 229.5,696.5 Q266,707 307,707 Q355,707 393,696.5 Q431,686 462,665 Q531,617 531,533 Q531,429 375,341 Q416,326 448.5,308 Q481,290 501,272 Q555,224 555,145"/> 
            <glyph glyph-name="9" unicode="&#x39;" horiz-adv-x="546" d=" M468,457 Q468,535 426,588 Q380,645 304,645 Q223,645 177,594 Q132,546 132,466 Q132,381 173,334 L172,334 Q215,288 294,288 Q376,288 422,334 Q468,382 468,457 M102,-40 Q87,-37 89,-17 L92,18 Q94,30 108,24 Q133,14 158.5,10 Q184,6 216,6 Q286,6 338,33.5 Q390,61 423,112 Q473,196 475,325 Q414,227 294,227 Q202,227 140,274 Q61,335 61,461 Q61,572 126,638 Q192,707 306,707 Q546,707 546,353 Q546,-54 209,-54 Q163,-54 102,-40"/> 
            <glyph glyph-name="=" unicode="&#x3D;" horiz-adv-x="601" d=" M598,468 Q601,465 601,454 L601,409 Q601,398 599.5,396.5 Q598,395 587,395 L73,395 Q62,395 60.5,396.5 Q59,398 59,409 L59,454 Q59,465 60.5,466.5 Q62,468 73,468 L587,468 M598,254 Q601,251 601,240 L601,197 Q601,186 599.5,184.5 Q598,183 587,183 L73,183 Q62,183 60.5,184.5 Q59,186 59,197 L59,240 Q59,251 60.5,252.5 Q62,254 73,254 L587,254"/> 
            <glyph glyph-name="@" unicode="&#x40;" horiz-adv-x="817" d=" M546,387 Q546,434 519,463 L519,462 Q494,482 460,482 Q403,482 351,422 Q293,353 294,264 Q295,216 315.5,189 Q336,162 371,162 Q406,162 439,183 Q472,204 498,241 Q521,276 533.5,313.5 Q546,351 546,387 M817,391 Q817,266 729,177 Q655,99 576,99 Q501,99 492,166 Q464,134 430,116.5 Q396,99 357,99 Q295,99 254,145 Q213,192 213,258 Q213,369 282,453 Q353,545 460,545 Q540,545 578,462 Q583,477 589.5,494.5 Q596,512 601,527 L669,527 L576,239 Q566,209 566,189 Q566,162 590,162 Q652,162 697,230 Q746,298 746,391 Q746,507 653,580 Q563,647 438,647 Q303,647 211,557 Q122,466 122,329 Q122,188 211,97 Q303,7 438,7 Q622,7 720,125 L785,125 Q733,39 642.5,-8.5 Q552,-56 438,-56 Q350,-56 277,-24.5 Q204,7 150,65 Q102,119 77,186 Q52,253 52,327 Q52,481 150,591 Q257,710 438,710 Q513,710 578.5,689.5 Q644,669 697,628 Q754,584 785.5,523.5 Q817,463 817,391"/> 
            <glyph glyph-name="A" unicode="&#x41;" horiz-adv-x="708" d=" M529,219 Q487,323 448.5,424.5 Q410,526 368,630 Q326,526 285.5,424.5 Q245,323 203,219 M703,-29 Q708,-43 694,-43 L646,-43 Q640,-43 635.5,-41 Q631,-39 627,-29 L553,155 L177,155 Q158,108 140,63 Q122,18 104,-29 Q100,-39 95.5,-41 Q91,-43 85,-43 L38,-43 Q24,-43 29,-29 L323,687 Q328,699 341,699 L402,699 Q415,699 420,687"/> 
            <glyph glyph-name="B" unicode="&#x42;" horiz-adv-x="532" d=" M435,512 Q435,635 272,635 L170,635 L170,374 L253,374 Q344,374 389.5,410 Q435,446 435,512 M458,164 Q458,238 404,274 Q350,310 233,310 L168,310 L168,20 L245,20 Q458,20 458,164 M532,168 Q532,-43 243,-43 L122,-43 Q101,-43 97.5,-39.5 Q94,-36 94,-15 L94,669 Q94,690 97.5,693.5 Q101,697 122,697 L272,697 Q509,697 509,515 Q509,376 377,346 Q453,324 492.5,279.5 Q532,235 532,168"/> 
            <glyph glyph-name="C" unicode="&#x43;" horiz-adv-x="618" d=" M599,29 Q605,31 610,29.5 Q615,28 615,22 L617,-17 Q618,-30 603,-35 Q570,-46 535,-51 Q500,-56 447,-56 Q273,-56 170,50 Q119,102 94.5,171 Q70,240 70,327 Q70,498 173,604 Q278,710 447,710 Q471,710 490.5,709 Q510,708 528.5,706 Q547,704 565,701 Q583,698 603,693 Q618,690 617,674 L615,634 Q613,620 600,625 Q561,638 526,642.5 Q491,647 447,647 Q306,647 222,557 Q144,470 144,327 Q144,255 163,197 Q182,139 221,96 Q302,6 447,7 Q489,8 530.5,13 Q572,18 599,29"/> 
            <glyph glyph-name="D" unicode="&#x44;" horiz-adv-x="652" d=" M579,333 Q579,492 491,568 Q413,635 277,635 L169,635 L169,20 L230,20 Q579,20 579,333 M652,329 Q652,236 620,163 Q588,90 531,42 Q477,1 400,-21 Q323,-43 226,-43 L123,-43 Q102,-43 98.5,-39.5 Q95,-36 95,-15 L95,669 Q95,690 98.5,693.5 Q102,697 123,697 L280,697 Q470,697 566,594 Q652,499 652,329"/> 
            <glyph glyph-name="E" unicode="&#x45;" horiz-adv-x="500" d=" M129,-44 Q108,-44 104.5,-40.5 Q101,-37 101,-16 L101,673 Q101,692 104.5,695.5 Q108,699 127,699 L474,699 Q488,699 488,685 L488,650 Q488,636 474,636 L174,636 L174,372 L459,372 Q473,372 473,358 L473,322 Q473,308 459,308 L174,308 L174,20 L486,20 Q500,20 500,6 L500,-30 Q500,-44 486,-44"/> 
            <glyph glyph-name="F" unicode="&#x46;" horiz-adv-x="468" d=" M165,-29 Q165,-43 151,-43 L105,-43 Q91,-43 91,-29 L91,668 Q91,690 94.5,693.5 Q98,697 120,697 L454,697 Q468,697 468,683 L468,649 Q468,635 454,635 L165,635 L165,370 L440,370 Q454,370 454,356 L454,320 Q454,306 440,306 L165,306"/> 
            <glyph glyph-name="G" unicode="&#x47;" horiz-adv-x="692" d=" M664,357 Q685,357 688.5,353.5 Q692,350 692,329 L692,12 Q692,1 685.5,-7 Q679,-15 671,-19 Q623,-37 570.5,-46.5 Q518,-56 461,-56 Q378,-56 307.5,-30.5 Q237,-5 186,43.5 Q135,92 106.5,163.5 Q78,235 78,327 Q78,411 104.5,481 Q131,551 180.5,602 Q230,653 301,681.5 Q372,710 461,710 Q517,710 558.5,705 Q600,700 647,685 Q662,681 659,665 L654,628 Q653,615 639,619 Q594,636 553,641.5 Q512,647 461,647 Q390,647 332.5,623.5 Q275,600 234.5,558 Q194,516 172.5,457 Q151,398 151,327 Q151,250 174,190 Q197,130 238.5,89.5 Q280,49 336.5,28 Q393,7 461,7 Q572,7 619,34 L619,294 L418,294 Q404,294 404,308 L404,343 Q404,357 418,357"/> 
            <glyph glyph-name="H" unicode="&#x48;" horiz-adv-x="628" d=" M628,-29 Q628,-43 614,-43 L569,-43 Q555,-43 555,-29 L555,308 L176,308 L176,-29 Q176,-43 162,-43 L117,-43 Q103,-43 103,-29 L103,685 Q103,699 117,699 L162,699 Q176,699 176,685 L176,371 L555,371 L555,685 Q555,699 569,699 L614,699 Q628,699 628,685"/> 
            <glyph glyph-name="I" unicode="&#x49;" horiz-adv-x="167" d=" M167,-43 L153,-43 L105,-43 Q91,-43 91,-29 L91,683 Q91,697 105,697 L153,697 Q167,697 167,683 L167,-29"/> 
            <glyph glyph-name="J" unicode="&#x4A;" horiz-adv-x="277" d=" M38,-50 Q30,-48 27,-43 Q24,-38 24,-32 L24,4 Q24,17 38,14 Q49,10 63.5,8.5 Q78,7 93,7 Q204,7 204,146 L204,683 Q204,697 218,697 L263,697 Q277,697 277,683 L277,147 Q277,57 237,3 Q190,-56 101,-56 Q84,-56 68,-54 Q52,-52 38,-50"/> 
            <glyph glyph-name="K" unicode="&#x4B;" horiz-adv-x="619" d=" M281,325 L183,210 L183,-29 Q183,-43 169,-43 L125,-43 Q111,-43 111,-29 L111,683 Q111,697 125,697 L169,697 Q183,697 183,683 L183,302 L492,683 Q506,697 526,697 L582,697 Q588,697 589.5,692.5 Q591,688 586,683 L328,380 L610,-29 Q619,-43 606,-43 L552,-43 Q542,-43 534,-40 Q526,-37 521,-29"/> 
            <glyph glyph-name="L" unicode="&#x4C;" horiz-adv-x="469" d=" M455,20 Q469,20 469,6 L469,-29 Q469,-43 455,-43 L131,-43 Q117,-43 109.5,-42.5 Q102,-42 98.5,-38.5 Q95,-35 94.5,-27 Q94,-19 94,-5 L94,683 Q94,697 108,697 L154,697 Q168,697 168,683 L168,20"/> 
            <glyph glyph-name="M" unicode="&#x4D;" horiz-adv-x="863" d=" M863,-29 Q863,-43 849,-43 L804,-43 Q790,-43 790,-29 L790,634 Q716,450 657,305 Q632,243 608,183.5 Q584,124 565,77.5 Q546,31 534,2 Q522,-27 522,-28 Q517,-38 507,-38 L462,-38 Q455,-38 452,-35.5 Q449,-33 447,-28 L171,634 L171,-29 Q171,-43 157,-43 L112,-43 Q98,-43 98,-29 L98,671 Q98,692 101.5,695.5 Q105,699 126,699 L201,699 Q209,699 212.5,697 Q216,695 219,687 L485,40 L743,688 Q747,699 759,699 L835,699 Q856,699 859.5,695.5 Q863,692 863,671"/> 
            <glyph glyph-name="N" unicode="&#x4E;" horiz-adv-x="641" d=" M164,-43 L150,-43 L105,-43 Q91,-43 91,-29 L91,671 Q91,692 94.5,695.5 Q98,699 119,699 L165,699 Q178,699 182.5,696.5 Q187,694 192,685 L569,38 L569,685 Q569,699 583,699 L627,699 Q641,699 641,685 L641,-15 Q641,-36 637.5,-39.5 Q634,-43 613,-43 L552,-43 Q544,-43 540.5,-41 Q537,-39 532,-31 L164,605 L164,-29"/> 
            <glyph glyph-name="O" unicode="&#x4F;" horiz-adv-x="724" d=" M650,327 Q650,390 634,446 Q618,502 589,547 Q554,596 505.5,622.5 Q457,649 396,649 Q334,649 285.5,622.5 Q237,596 202,547 Q173,502 157,446 Q141,390 141,327 Q141,264 157,207.5 Q173,151 202,106 Q238,58 287,31 Q336,4 396,4 Q457,4 505.5,30.5 Q554,57 589,106 Q618,151 634,207.5 Q650,264 650,327 M723,327 Q721,149 641,49 Q554,-59 396,-59 Q238,-59 150,49 Q68,152 68,327 Q68,410 88,477 Q108,544 146,596 Q191,651 254.5,681.5 Q318,712 396,712 Q475,712 537.5,682 Q600,652 645,595 Q684,541 704,474.5 Q724,408 723,327"/> 
            <glyph glyph-name="P" unicode="&#x50;" horiz-adv-x="545" d=" M470,488 Q470,559 433,597.5 Q396,636 324,636 L174,636 L174,337 L255,337 Q303,337 341.5,342 Q380,347 407.5,363 Q435,379 451,408.5 Q467,438 470,488 M174,-29 Q174,-43 160,-43 L115,-43 Q101,-43 101,-29 L101,669 Q101,691 105.5,695 Q110,699 131,699 L309,699 Q419,699 481,646 Q545,591 545,488 Q545,436 526.5,395.5 Q508,355 475,327.5 Q442,300 397,286 Q352,272 301,274 L174,274"/> 
            <glyph glyph-name="Q" unicode="&#x51;" horiz-adv-x="724" d=" M650,327 Q650,457 589,546 Q520,647 396,647 Q271,647 202,546 Q141,457 141,327 Q141,197 202,108 Q271,7 396,7 Q520,7 589,108 Q650,197 650,327 M671,-167 Q676,-172 674.5,-176.5 Q673,-181 667,-181 L610,-181 Q590,-181 576,-167 L458,-51 Q445,-53 430,-54.5 Q415,-56 396,-56 Q237,-56 151,51 Q70,151 68,327 Q67,487 146,594 Q191,649 254.5,679.5 Q318,710 396,710 Q474,710 537,679.5 Q600,649 645,594 Q724,487 723,327 Q722,261 708.5,204 Q695,147 672,102 Q648,56 611.5,21.5 Q575,-13 528,-31"/> 
            <glyph glyph-name="R" unicode="&#x52;" horiz-adv-x="590" d=" M469,481 Q469,523 459.5,552.5 Q450,582 427.5,600.5 Q405,619 369,627 Q333,635 279,635 L176,635 L176,337 L281,337 Q322,337 356.5,347 Q391,357 416,376 Q441,395 455,421.5 Q469,448 469,481 M588,-29 Q590,-34 588,-38.5 Q586,-43 580,-43 L528,-43 Q513,-43 506,-29 Q461,65 431,124.5 Q401,184 384,219 Q363,260 352,282 Q329,277 309.5,276 Q290,275 260,274 L176,274 L176,-29 Q176,-43 162,-43 L117,-43 Q103,-43 103,-29 L103,667 Q103,678 103.5,684 Q104,690 107,693 Q110,696 116,696.5 Q122,697 133,697 L322,697 Q379,697 420.5,681.5 Q462,666 489.5,638 Q517,610 530.5,570 Q544,530 544,481 Q544,451 533.5,424 Q523,397 505,374 Q487,351 463.5,332.5 Q440,314 415,302"/> 
            <glyph glyph-name="S" unicode="&#x53;" horiz-adv-x="488" d=" M86,-33 Q70,-28 73,-15 L77,31 Q79,39 83.5,42 Q88,45 94,41 Q129,22 164.5,13.5 Q200,5 246,5 Q319,5 365.5,45 Q412,85 412,158 Q412,187 389.5,216 Q367,245 327,271 Q292,293 248,317 Q204,341 164,369.5 Q124,398 97,433.5 Q70,469 70,516 Q70,564 90,600.5 Q110,637 143.5,661.5 Q177,686 220,699 Q263,712 308,712 Q347,712 377,707.5 Q407,703 442,692 Q457,687 454,674 L446,635 Q443,618 429,626 Q401,639 374.5,643.5 Q348,648 307,648 Q274,648 244.5,640 Q215,632 193.5,616 Q172,600 159,576 Q146,552 146,519 Q146,493 163.5,470 Q181,447 206.5,427 Q232,407 261.5,390.5 Q291,374 315,360 Q348,341 379,321 Q410,301 434,276 Q458,251 473,221 Q488,191 488,152 Q488,102 467.5,63 Q447,24 413,-3 Q379,-30 334.5,-44.5 Q290,-59 242,-59 Q198,-59 163.5,-53 Q129,-47 86,-33"/> 
            <glyph glyph-name="T" unicode="&#x54;" horiz-adv-x="536" d=" M314,635 L314,-29 Q314,-43 300,-43 L254,-43 Q240,-43 240,-29 L240,635 L34,635 Q20,635 20,649 L20,683 Q20,697 34,697 L522,697 Q536,697 536,683 L536,649 Q536,635 522,635"/> 
            <glyph glyph-name="U" unicode="&#x55;" horiz-adv-x="637" d=" M170,215 Q170,120 219,65 Q274,4 366,4 Q460,4 515,65 Q540,92 551.5,129.5 Q563,167 563,215 L563,685 Q563,699 577,699 L623,699 Q637,699 637,685 L637,215 Q637,142 613,86.5 Q589,31 544,-4 Q471,-59 366,-59 Q262,-59 189,-4 Q96,65 96,215 L96,685 Q96,699 110,699 L156,699 Q170,699 170,685"/> 
            <glyph glyph-name="V" unicode="&#x56;" horiz-adv-x="654" d=" M579,683 Q581,689 586,693 Q591,697 597,697 L642,697 Q648,697 651,692.5 Q654,688 652,683 L379,-30 Q376,-38 372.5,-40.5 Q369,-43 361,-43 L306,-43 Q298,-43 294.5,-40.5 Q291,-38 288,-30 L21,683 Q19,688 22,692.5 Q25,697 31,697 L81,697 Q93,697 99,683 L334,30 Q394,191 455,353.5 Q516,516 579,683"/> 
            <glyph glyph-name="W" unicode="&#x57;" horiz-adv-x="1005" d=" M795,-33 Q792,-43 782,-43 L715,-43 Q704,-43 702,-33 L515,617 Q467,454 420,292.5 Q373,131 325,-33 Q322,-43 312,-43 L243,-43 Q232,-43 230,-33 L25,683 Q23,688 26,692.5 Q29,697 35,697 L82,697 Q96,697 100,683 L280,33 Q327,197 374,355.5 Q421,514 468,678 Q470,688 477,692.5 Q484,697 493,697 L545,697 Q562,697 567,678 L750,37 Q796,203 841,360 Q886,517 933,683 Q935,689 940,693 Q945,697 951,697 L993,697 Q999,697 1002,692.5 Q1005,688 1003,683"/> 
            <glyph glyph-name="X" unicode="&#x58;" horiz-adv-x="648" d=" M644,-29 Q648,-34 645,-38.5 Q642,-43 636,-43 L576,-43 Q565,-43 556,-29 L338,294 L111,-29 Q105,-37 100.5,-40 Q96,-43 91,-43 L36,-43 Q30,-43 27,-38.5 Q24,-34 28,-29 L295,347 L56,683 Q52,688 55,692.5 Q58,697 64,697 L120,697 Q127,697 131,694 Q135,691 140,683 L341,399 L544,683 Q554,697 564,697 L616,697 Q622,697 625,692.5 Q628,688 624,683 L384,347"/> 
            <glyph glyph-name="Y" unicode="&#x59;" horiz-adv-x="642" d=" M373,-29 Q373,-43 359,-43 L313,-43 Q299,-43 299,-29 L299,270 Q232,375 165.5,478.5 Q99,582 32,685 Q30,690 32,694.5 Q34,699 40,699 L97,699 Q109,699 117,685 L335,334 Q395,425 448,509.5 Q501,594 561,685 Q568,699 581,699 L631,699 Q637,699 639.5,694.5 Q642,690 639,685 L373,270"/> 
            <glyph glyph-name="Z" unicode="&#x5A;" horiz-adv-x="514" d=" M58,-43 Q48,-43 42.5,-42.5 Q37,-42 34.5,-39.5 Q32,-37 31.5,-32 Q31,-27 31,-17 L31,14 Q31,21 35,27 L421,635 L55,635 Q41,635 41,649 L41,683 Q41,697 55,697 L472,697 Q493,697 496.5,693.5 Q500,690 500,669 L500,648 Q500,634 493,623 L112,20 L500,20 Q514,20 514,6 L514,-29 Q514,-43 500,-43"/> 
            <glyph glyph-name="\" unicode="&#x5C;" horiz-adv-x="912" d=" M525,382 Q514,429 504,471 Q494,513 483,561 Q473,518 462,471.5 Q451,425 441,382 M723,340 L591,340 Q608,267 624,198.5 Q640,130 657,57 M377,340 L243,340 Q260,267 276,199 Q292,131 309,58 M912,353 Q912,343 910,341.5 Q908,340 897,340 L784,340 Q761,246 739.5,153 Q718,60 695,-34 Q692,-48 689.5,-50 Q687,-52 673,-52 L641,-52 Q627,-52 624.5,-50 Q622,-48 619,-34 L534,340 L430,340 Q407,246 386,153.5 Q365,61 343,-33 Q340,-47 337.5,-49.5 Q335,-52 321,-52 L291,-52 Q277,-52 274,-49.5 Q271,-47 268,-33 L182,340 L68,340 Q57,340 55.5,341.5 Q54,343 54,354 L54,368 Q54,379 55.5,380.5 Q57,382 68,382 L172,382 Q158,442 144,504.5 Q130,567 116,628 Q111,647 113.5,650 Q116,653 134,653 L153,653 Q169,653 172,650.5 Q175,648 179,632 L235,382 L383,382 Q397,444 411.5,507 Q426,570 442,633 Q446,648 449,650.5 Q452,653 467,653 L502,653 Q517,653 520,650.5 Q523,648 526,633 L583,382 L732,382 Q746,445 761.5,508.5 Q777,572 791,635 Q794,649 796.5,651 Q799,653 813,653 L837,653 Q852,653 854,650.5 Q856,648 853,634 L792,382 L897,382 Q908,382 910,380.5 Q912,379 912,368"/> 
            <glyph glyph-name="^" unicode="&#x5E;" horiz-adv-x="596" d=" M588,258 Q596,243 594.5,240.5 Q593,238 576,238 L542,238 Q526,238 522.5,240.5 Q519,243 512,257 L331,625 Q285,533 239,439.5 Q193,346 148,255 Q141,242 137.5,240 Q134,238 119,238 L86,238 Q69,238 67,240.5 Q65,243 73,258 L296,697 L364,697"/> 
            <glyph glyph-name="_" unicode="&#x5F;" horiz-adv-x="544" d=" M541,-124 Q544,-127 544,-138 L544,-162 Q544,-173 542.5,-174.5 Q541,-176 530,-176 L24,-176 Q13,-176 11.5,-174.5 Q10,-173 10,-162 L10,-138 Q10,-127 11.5,-125.5 Q13,-124 24,-124 L530,-124"/> 
            <glyph glyph-name="a" unicode="&#x61;" horiz-adv-x="473" d=" M401,239 L382,239 Q326,241 282.5,234.5 Q239,228 210,217 Q168,202 147,172.5 Q126,143 126,102 Q126,77 134,55.5 Q142,34 159,22 Q189,-2 239,-2 Q274,-2 303.5,12 Q333,26 355,52 Q377,78 389,116.5 Q401,155 401,205 M116,414 Q111,411 106.5,412.5 Q102,414 102,419 L102,457 Q102,471 116,478 Q151,497 190.5,504.5 Q230,512 277,512 Q377,512 423,464.5 Q469,417 469,321 L469,70 Q469,40 470,16.5 Q471,-7 473,-29 Q473,-43 459,-43 L423,-43 Q409,-43 409,-29 L409,48 Q388,-3 338.5,-31 Q289,-59 231,-59 Q130,-59 83,0 Q67,20 59,46.5 Q51,73 51,99 Q51,160 79.5,204 Q108,248 167,270 Q239,296 388,296 L401,296 L401,326 Q401,389 372.5,422 Q344,455 277,455 Q232,455 192,445.5 Q152,436 116,414"/> 
            <glyph glyph-name="b" unicode="&#x62;" horiz-adv-x="552" d=" M479,231 Q480,273 471.5,313 Q463,353 444,385 Q425,417 393.5,436.5 Q362,456 316,456 Q275,456 244.5,438.5 Q214,421 194,390 Q174,359 164,318 Q154,277 154,231 Q154,186 166.5,144.5 Q179,103 200.5,72 Q222,41 251.5,22.5 Q281,4 316,4 Q362,4 393.5,23.5 Q425,43 444,75 Q463,107 471.5,148 Q480,189 479,231 M87,742 Q87,756 101,756 L140,756 Q154,756 154,742 L154,423 Q179,464 225,488.5 Q271,513 328,513 Q551,513 551,231 Q552,175 539.5,123.5 Q527,72 499,33 Q471,-6 428.5,-29.5 Q386,-53 328,-53 Q208,-53 154,49 L154,-29 Q154,-43 140,-43 L101,-43 Q87,-43 87,-29"/> 
            <glyph glyph-name="c" unicode="&#x63;" horiz-adv-x="455" d=" M440,-47 Q410,-52 382,-54 Q354,-56 315,-56 Q253,-56 204.5,-34 Q156,-12 122.5,26 Q89,64 71,116 Q53,168 53,228 Q53,289 72,340.5 Q91,392 126.5,429.5 Q162,467 211.5,488.5 Q261,510 323,510 Q356,510 383,507.5 Q410,505 441,498 Q455,494 454,479 L451,447 Q449,435 436,438 Q410,446 386,449.5 Q362,453 333,453 Q282,453 243.5,436.5 Q205,420 179,390 Q153,360 140,318.5 Q127,277 127,228 Q127,183 140.5,142 Q154,101 179.5,69.5 Q205,38 241.5,19.5 Q278,1 325,1 Q360,1 383,4 Q406,7 435,15 Q450,19 451,8 L454,-29 Q455,-44 440,-47"/> 
            <glyph glyph-name="d" unicode="&#x64;" horiz-adv-x="526" d=" M137,228 Q137,181 144.5,142.5 Q152,104 168,75 Q190,39 221.5,20 Q253,1 297,1 Q337,1 367.5,22 Q398,43 418.5,75.5 Q439,108 449,148.5 Q459,189 459,228 Q459,276 448.5,317 Q438,358 417.5,388 Q397,418 367,435 Q337,452 297,452 Q212,452 168,379 Q152,350 144.5,311.5 Q137,273 137,228 M526,-29 Q526,-43 512,-43 L473,-43 Q459,-43 459,-29 L459,46 Q405,-56 285,-56 Q178,-56 118,26 Q63,102 63,228 Q63,509 285,509 Q345,509 391.5,485 Q438,461 459,423 L459,738 Q459,752 473,752 L512,752 Q526,752 526,738"/> 
            <glyph glyph-name="e" unicode="&#x65;" horiz-adv-x="501" d=" M427,265 Q427,306 419,338 Q411,370 394,396 Q357,455 287,455 Q215,455 170,395 Q152,368 140,333 Q128,298 127,265 M127,208 Q126,158 138.5,119.5 Q151,81 175,55 Q199,29 232.5,15 Q266,1 307,1 Q347,1 382,8.5 Q417,16 447,33 Q460,39 460,26 L460,-19 Q460,-28 449,-33 Q416,-46 380,-52.5 Q344,-59 302,-59 Q179,-59 116,12.5 Q53,84 53,228 Q53,355 116,433 Q182,512 283,512 Q339,512 380,492 Q421,472 450,432 Q501,361 501,242 Q501,229 500.5,222 Q500,215 497,212 Q494,209 486.5,208.5 Q479,208 465,208"/> 
            <glyph glyph-name="f" unicode="&#x66;" horiz-adv-x="348" d=" M335,761 Q348,757 347,740 L345,711 Q344,705 340,703.5 Q336,702 331,704 Q320,708 311,709.5 Q302,711 290,711 Q231,711 214,652 Q207,628 207,546 L207,498 L317,498 Q331,498 331,484 L331,454 Q331,440 317,440 L207,440 L207,-29 Q207,-43 193,-43 L154,-43 Q140,-43 140,-29 L140,440 L43,440 Q29,440 29,454 L29,484 Q29,498 43,498 L140,498 L140,539 Q140,648 160,696 Q191,768 284,768 Q313,768 335,761"/> 
            <glyph glyph-name="g" unicode="&#x67;" horiz-adv-x="527" d=" M461,230 Q461,337 417,395 Q373,453 298,453 Q217,453 176,399 Q135,345 135,228 Q135,185 147,149 Q159,113 180,87.5 Q201,62 230,47.5 Q259,33 293,33 Q328,33 359,47.5 Q390,62 412.5,88.5 Q435,115 448,151 Q461,187 461,230 M117,-174 Q105,-171 107,-159 L110,-115 Q110,-102 123,-109 Q161,-126 196,-133.5 Q231,-141 272,-141 Q363,-141 408.5,-85.5 Q454,-30 460,66 Q437,21 392,-2 Q347,-25 292,-25 Q243,-25 201,-7 Q159,11 128,44 Q97,77 79,124 Q61,171 61,228 Q61,295 73.5,347.5 Q86,400 113,436 Q140,472 183,491 Q226,510 287,510 Q340,510 380.5,492.5 Q421,475 463,430 L461,484 Q461,498 475,498 L513,498 Q527,498 527,484 L527,84 Q527,19 510.5,-33.5 Q494,-86 461.5,-122.5 Q429,-159 381,-178.5 Q333,-198 271,-198 Q226,-198 192,-192.5 Q158,-187 117,-174"/> 
            <glyph glyph-name="h" unicode="&#x68;" horiz-adv-x="521" d=" M521,-29 Q521,-43 507,-43 L467,-43 Q453,-43 453,-29 L453,279 Q453,327 444.5,360.5 Q436,394 420,414.5 Q404,435 381,444 Q358,453 330,453 Q248,453 204.5,414 Q161,375 161,306 L161,-29 Q161,-43 147,-43 L107,-43 Q93,-43 93,-29 L93,739 Q93,753 107,753 L147,753 Q161,753 161,739 L161,449 Q189,481 230.5,495.5 Q272,510 334,510 Q431,510 476,453 Q521,396 521,280"/> 
            <glyph glyph-name="i" unicode="&#x69;" horiz-adv-x="176" d=" M164,-43 L150,-43 L106,-43 Q92,-43 92,-29 L92,484 Q92,498 106,498 L150,498 Q164,498 164,484 L164,-29 M79,687 Q79,707 93,721.5 Q107,736 127,736 Q147,736 161.5,721.5 Q176,707 176,687 Q176,667 161.5,653 Q147,639 127,639 Q107,639 93,653 Q79,667 79,687"/> 
            <glyph glyph-name="j" unicode="&#x6A;" horiz-adv-x="206" d=" M23,-195 Q9,-194 9,-176 L9,-148 Q9,-136 23,-139 Q27,-140 34.5,-140.5 Q42,-141 48,-141 Q72,-141 88,-132.5 Q104,-124 113,-110 Q124,-88 124,-38 L124,484 Q124,498 138,498 L178,498 Q192,498 192,484 L192,-45 Q192,-198 67,-198 Q53,-198 43.5,-197.5 Q34,-197 23,-195 M109,687 Q109,707 123,721.5 Q137,736 157,736 Q177,736 191.5,721.5 Q206,707 206,687 Q206,667 191.5,653 Q177,639 157,639 Q137,639 123,653 Q109,667 109,687"/> 
            <glyph glyph-name="k" unicode="&#x6B;" horiz-adv-x="490" d=" M271,257 L487,-29 Q490,-34 489,-38.5 Q488,-43 482,-43 L439,-43 Q429,-43 421,-40 Q413,-37 408,-29 L228,209 L161,134 L161,-29 Q161,-43 147,-43 L107,-43 Q93,-43 93,-29 L93,739 Q93,753 107,753 L147,753 Q161,753 161,739 L161,218 L389,484 Q403,498 422,498 L469,498 Q475,498 477,493.5 Q479,489 474,484"/> 
            <glyph glyph-name="l" unicode="&#x6C;" horiz-adv-x="165" d=" M165,-43 L151,-43 L107,-43 Q93,-43 93,-29 L93,738 Q93,752 107,752 L151,752 Q165,752 165,738 L165,-29"/> 
            <glyph glyph-name="m" unicode="&#x6D;" horiz-adv-x="819" d=" M94,371 Q94,413 93,437.5 Q92,462 90,484 Q90,498 104,498 L141,498 Q155,498 155,484 L155,430 Q178,467 217,488.5 Q256,510 313,510 Q373,510 418,480.5 Q463,451 473,394 Q494,451 540.5,480.5 Q587,510 648,510 Q687,510 718.5,496 Q750,482 772.5,457.5 Q795,433 807,400 Q819,367 819,330 L819,-29 Q819,-43 805,-43 L767,-43 Q753,-43 753,-30 L753,316 Q753,453 638,453 Q603,453 575.5,437.5 Q548,422 528.5,395 Q509,368 499.5,332 Q490,296 491,256 L491,-29 Q491,-43 477,-43 L437,-43 Q423,-43 423,-29 L423,316 Q423,453 307,453 Q239,453 200,409 Q161,365 161,293 L161,-29 Q161,-43 147,-43 L108,-43 Q94,-43 94,-29"/> 
            <glyph glyph-name="n" unicode="&#x6E;" horiz-adv-x="521" d=" M521,-29 Q521,-43 507,-43 L467,-43 Q453,-43 453,-29 L453,286 Q453,378 420,416.5 Q387,455 327,455 Q246,455 203.5,410 Q161,365 161,284 L161,-29 Q161,-43 147,-43 L107,-43 Q93,-43 93,-29 L93,371 Q93,414 92.5,438 Q92,462 90,484 Q89,491 93.5,494.5 Q98,498 104,498 L140,498 Q154,498 154,484 L154,429 Q182,472 221.5,492 Q261,512 330,512 Q425,512 473,457 Q521,402 521,302"/> 
            <glyph glyph-name="o" unicode="&#x6F;" horiz-adv-x="563" d=" M489,227 Q489,274 476.5,315 Q464,356 442,388 Q390,452 307,452 Q265,452 231.5,435.5 Q198,419 172,388 Q149,356 136.5,315 Q124,274 124,227 Q124,179 136.5,138 Q149,97 172,66 Q225,1 307,1 Q349,1 382.5,18 Q416,35 442,66 Q464,97 476.5,138 Q489,179 489,227 M563,227 Q563,168 546,117.5 Q529,67 501,29 Q466,-13 417.5,-36 Q369,-59 307,-59 Q245,-59 196,-36 Q147,-13 112,29 Q84,67 67.5,117.5 Q51,168 51,227 Q51,348 112,425 Q182,512 307,512 Q370,512 418,490.5 Q466,469 501,425 Q563,346 563,227"/> 
            <glyph glyph-name="p" unicode="&#x70;" horiz-adv-x="540" d=" M467,235 Q467,276 459,314.5 Q451,353 432,383 Q413,413 383,431.5 Q353,450 308,450 Q267,450 237,433 Q207,416 187.5,386.5 Q168,357 158,318 Q148,279 148,235 Q148,119 191.5,59.5 Q235,0 308,0 Q346,0 375.5,16.5 Q405,33 425.5,64 Q446,95 456.5,138 Q467,181 467,235 M81,484 Q81,498 95,498 L133,498 Q147,498 147,484 L142,409 Q162,453 209.5,480 Q257,507 320,507 Q379,507 420.5,486 Q462,465 488.5,428.5 Q515,392 527.5,342 Q540,292 540,235 Q540,173 525.5,120 Q511,67 483.5,28 Q456,-11 415,-33.5 Q374,-56 320,-56 Q259,-56 215,-32.5 Q171,-9 148,33 L148,-182 Q148,-196 134,-196 L96,-196 Q90,-196 85.5,-192 Q81,-188 81,-182"/> 
            <glyph glyph-name="q" unicode="&#x71;" horiz-adv-x="527" d=" M141,235 Q141,181 151.5,138 Q162,95 182,64 Q202,33 231.5,16.5 Q261,0 299,0 Q373,0 416.5,59.5 Q460,119 460,235 Q460,280 450,319 Q440,358 420,387 Q400,416 370,433 Q340,450 299,450 Q254,450 224,432 Q194,414 175.5,384 Q157,354 149,315 Q141,276 141,235 M527,-182 Q527,-188 522.5,-192 Q518,-196 512,-196 L474,-196 Q460,-196 460,-182 L460,33 Q437,-9 393,-33 Q349,-57 287,-57 Q234,-57 193,-34.5 Q152,-12 124,27 Q96,66 82,119.5 Q68,173 68,235 Q68,293 80.5,342.5 Q93,392 119,428.5 Q145,465 186.5,486 Q228,507 287,507 Q350,507 398,480 Q446,453 466,409 L461,484 Q461,498 475,498 L513,498 Q527,498 527,484"/> 
            <glyph glyph-name="r" unicode="&#x72;" horiz-adv-x="362" d=" M347,437 Q329,443 299,443 Q225,443 189,370 Q161,313 161,224 L161,-29 Q161,-43 147,-43 L108,-43 Q94,-43 94,-29 L94,377 Q94,413 93.5,435.5 Q93,458 92,484 Q92,498 106,498 L143,498 Q157,498 157,484 L157,386 Q206,512 301,512 Q324,512 347,506 Q353,504 357.5,499.5 Q362,495 362,487 L362,445 Q362,439 357,437 Q352,435 347,437"/> 
            <glyph glyph-name="s" unicode="&#x73;" horiz-adv-x="390" d=" M66,23 Q127,-2 192,-2 Q246,-2 281,24.5 Q316,51 316,96 Q316,122 296.5,146.5 Q277,171 249,187 Q218,204 185.5,219.5 Q153,235 123,252 Q87,272 70,301.5 Q53,331 53,363 Q53,400 67,428 Q81,456 105,475 Q129,494 161,503 Q193,512 229,512 Q267,512 295,508 Q323,504 351,496 Q357,494 361.5,490 Q366,486 365,479 L362,449 Q361,441 356,439 Q351,437 346,439 Q321,448 296,451.5 Q271,455 236,455 Q120,455 120,363 Q120,343 135.5,325 Q151,307 188,289 Q220,273 251,258.5 Q282,244 318,224 Q349,207 369.5,172 Q390,137 390,96 Q390,56 374,27 Q358,-2 331,-21 Q304,-40 269,-49.5 Q234,-59 197,-59 Q175,-59 157.5,-58 Q140,-57 124.5,-55 Q109,-53 93,-50 Q77,-47 59,-42 Q45,-37 46,-24 L50,13 Q52,29 66,23"/> 
            <glyph glyph-name="t" unicode="&#x74;" horiz-adv-x="359" d=" M345,-44 Q303,-59 262,-59 Q181,-59 155,-6 Q138,30 138,121 L138,440 L44,440 Q30,440 30,454 L30,484 Q30,498 44,498 L138,498 L138,633 Q138,648 151,648 L193,648 Q206,648 206,633 L206,498 L317,498 Q331,498 331,484 L331,454 Q331,440 317,440 L206,440 L206,87 Q206,-2 278,-2 Q306,-2 341,10 Q346,12 350.5,10 Q355,8 355,2 L357,-24 Q359,-38 345,-44"/> 
            <glyph glyph-name="u" unicode="&#x75;" horiz-adv-x="523" d=" M523,-29 Q523,-43 509,-43 L473,-43 Q459,-43 459,-29 L459,54 Q433,-6 389.5,-32.5 Q346,-59 280,-59 Q93,-59 93,150 L93,484 Q93,498 107,498 L147,498 Q161,498 161,484 L161,168 Q161,-2 291,-2 Q329,-2 359.5,14.5 Q390,31 411,59.5 Q432,88 443,126 Q454,164 453,206 L453,484 Q453,498 467,498 L507,498 Q521,498 521,484 L521,82 Q521,49 521.5,23 Q522,-3 523,-29"/> 
            <glyph glyph-name="v" unicode="&#x76;" horiz-adv-x="473" d=" M288,-30 Q283,-43 268,-43 L219,-43 Q204,-43 200,-30 L24,484 Q22,489 25,493.5 Q28,498 34,498 L79,498 Q91,498 97,484 L245,26 L399,484 Q401,490 406,494 Q411,498 417,498 L461,498 Q467,498 470,493.5 Q473,489 471,484"/> 
            <glyph glyph-name="w" unicode="&#x77;" horiz-adv-x="831" d=" M659,-32 Q656,-43 643,-43 L584,-43 Q572,-43 568,-32 L426,428 Q389,312 352,198 Q315,84 278,-31 Q275,-43 260,-43 L205,-43 Q198,-43 193.5,-41 Q189,-39 187,-31 L20,484 Q18,489 21,493.5 Q24,498 30,498 L76,498 Q88,498 94,484 L236,28 Q273,143 308.5,253.5 Q344,364 381,479 Q386,498 404,498 L451,498 Q470,498 475,479 L614,28 Q652,146 687.5,256 Q723,366 761,484 Q763,490 768,494 Q773,498 779,498 L819,498 Q825,498 828,493.5 Q831,489 829,484"/> 
            <glyph glyph-name="x" unicode="&#x78;" horiz-adv-x="479" d=" M476,-29 Q479,-34 476.5,-38.5 Q474,-43 468,-43 L412,-43 Q400,-43 392,-29 L257,191 L112,-29 Q103,-43 92,-43 L42,-43 Q36,-43 33.5,-38.5 Q31,-34 34,-29 L217,244 L53,484 Q50,489 52.5,493.5 Q55,498 61,498 L116,498 Q128,498 136,484 L257,296 L380,484 Q389,498 400,498 L449,498 Q455,498 457.5,493.5 Q460,489 457,484 L297,244"/> 
            <glyph glyph-name="y" unicode="&#x79;" horiz-adv-x="451" d=" M47,-191 Q35,-188 37,-176 L40,-142 Q40,-130 52,-135 Q68,-141 89,-141 Q110,-141 127.5,-134.5 Q145,-128 154,-117 Q165,-103 178.5,-71 Q192,-39 205,2 Q160,124 116,243 Q72,362 27,484 Q25,489 27,493.5 Q29,498 35,498 L82,498 Q96,498 102,484 L237,96 Q274,198 307.5,290.5 Q341,383 378,484 Q383,498 398,498 L441,498 Q447,498 449,493.5 Q451,489 449,484 L241,-74 Q230,-103 216.5,-126 Q203,-149 189,-163 Q171,-180 149,-188.5 Q127,-197 103,-197 Q88,-197 76,-196 Q64,-195 47,-191"/> 
            <glyph glyph-name="z" unicode="&#x7A;" horiz-adv-x="451" d=" M71,-43 Q50,-43 46.5,-39.5 Q43,-36 43,-15 L43,1 Q43,14 51,23 L373,440 L70,440 Q56,440 56,454 L56,484 Q56,498 70,498 L423,498 Q444,498 447.5,494.5 Q451,491 451,470 L451,452 Q451,439 444,431 L121,13 L437,13 Q451,13 451,-1 L451,-29 Q451,-43 437,-43"/> 
            <glyph glyph-name="|" unicode="&#x7C;" horiz-adv-x="165" d=" M165,-151 L151,-151 L107,-151 Q93,-151 93,-137 L93,737 Q93,751 107,751 L151,751 Q165,751 165,737 L165,-137"/> 
            <glyph glyph-name="~" unicode="&#x7E;" horiz-adv-x="576" d=" M568,361 Q576,350 576,346.5 Q576,343 568,330 Q520,250 444,250 Q406,250 321,288 Q237,328 215,328 Q178,328 132,267 Q123,254 120,254 Q117,254 108,267 L93,288 Q85,300 85.5,305.5 Q86,311 94,325 Q142,400 216,400 Q258,400 339,362 Q420,322 445,322 Q465,322 486.5,338.5 Q508,355 530,385 Q538,396 540,396.5 Q542,397 550,386"/> 
            <glyph glyph-name="가" unicode="&#xAC00;" horiz-adv-x="923" d=" M507,635 Q502,549 473,466 Q444,383 392.5,307.5 Q341,232 268.5,167.5 Q196,103 104,54 Q91,47 85,57 L63,92 Q56,104 67,109 Q152,153 217.5,209.5 Q283,266 329.5,332 Q376,398 403,471 Q430,544 437,621 Q439,636 433,641.5 Q427,647 413,647 L103,647 Q91,647 91,660 L91,695 Q91,707 103,707 L432,707 Q479,707 494,689.5 Q509,672 507,635 M770,-140 L756,-140 L715,-140 Q701,-140 701,-126 L701,768 Q701,782 715,782 L756,782 Q770,782 770,768 L770,414 L908,414 Q914,414 918.5,410.5 Q923,407 923,401 L923,367 Q923,362 918.5,358 Q914,354 908,354 L770,354 L770,-126"/> 
            <glyph glyph-name="고" unicode="&#xACE0;" horiz-adv-x="910" d=" M900,78 Q910,71 910,65 L910,31 Q910,26 905,22 Q900,18 895,18 L45,18 Q39,18 34.5,22 Q30,26 30,31 L30,65 Q30,71 34.5,74.5 Q39,78 45,78 L401,78 L401,385 Q401,391 404.5,395.5 Q408,400 414,400 L457,400 Q462,400 466,395.5 Q470,391 470,385 L470,78 L895,78 M156,707 Q166,713 171,713 L704,713 Q728,713 742.5,708 Q757,703 765,693.5 Q773,684 776,669 Q779,654 780,633 Q781,592 780,541 Q779,490 775,435 Q771,380 764,324 Q757,268 747,217 Q746,211 742,206 Q738,201 732,202 L692,205 Q675,206 680,223 Q689,262 696,318.5 Q703,375 707.5,433.5 Q712,492 713.5,545.5 Q715,599 712,632 Q710,646 706.5,649.5 Q703,653 689,653 L171,653 Q166,653 161,656.5 Q156,660 156,665 L156,701"/> 
            <glyph glyph-name="구" unicode="&#xAD6C;" horiz-adv-x="910" d=" M151,748 Q161,754 166,754 L695,754 Q719,754 733.5,749 Q748,744 756,734.5 Q764,725 767.5,710 Q771,695 771,674 Q773,596 761.5,515 Q750,434 730,340 L895,340 Q900,340 905,336.5 Q910,333 910,327 L910,293 Q910,288 905,284 Q900,280 895,280 L502,280 L502,-119 Q502,-125 498.5,-129.5 Q495,-134 489,-134 L446,-134 Q441,-134 437,-129.5 Q433,-125 433,-119 L433,280 L45,280 Q39,280 34.5,284 Q30,288 30,293 L30,327 Q30,333 34.5,336.5 Q39,340 45,340 L662,340 Q672,379 681,425 Q690,471 695.5,517 Q701,563 703,604 Q705,645 703,673 Q701,687 697.5,690.5 Q694,694 680,694 L166,694 Q161,694 156,697.5 Q151,701 151,706 L151,742"/> 
            <glyph glyph-name="급" unicode="&#xAE09;" horiz-adv-x="910" d=" M243,-134 Q219,-134 204.5,-131 Q190,-128 182,-119.5 Q174,-111 171,-97.5 Q168,-84 168,-63 L168,229 Q168,234 172,237.5 Q176,241 181,241 L225,241 Q230,241 233.5,237 Q237,233 237,229 L237,116 L701,116 L701,228 Q701,233 704.5,237 Q708,241 713,241 L757,241 Q762,241 766,237.5 Q770,234 770,229 L770,-70 Q770,-108 754,-121 Q738,-134 694,-134 M704,677 Q704,692 699,697.5 Q694,703 680,703 L178,703 Q165,703 165,716 L165,750 Q165,763 178,763 L695,763 Q742,763 757,746.5 Q772,730 772,687 Q772,658 770,623.5 Q768,589 764.5,552.5 Q761,516 756,480.5 Q751,445 745,415 L895,415 Q900,415 905,411.5 Q910,408 910,402 L910,368 Q910,363 905,359 Q900,355 895,355 L45,355 Q39,355 34.5,359 Q30,363 30,368 L30,402 Q30,408 34.5,411.5 Q39,415 45,415 L681,415 Q687,444 691,478.5 Q695,513 698,548 Q701,583 702.5,616.5 Q704,650 704,677 M237,56 L237,-50 Q237,-65 242,-69.5 Q247,-74 261,-74 L677,-74 Q691,-74 696,-69.5 Q701,-65 701,-50 L701,56"/> 
            <glyph glyph-name="기" unicode="&#xAE30;" horiz-adv-x="805" d=" M805,-140 L791,-140 L750,-140 Q736,-140 736,-126 L736,768 Q736,782 750,782 L791,782 Q805,782 805,768 L805,-126 M537,635 Q532,549 503,466 Q474,383 422.5,307.5 Q371,232 298.5,167.5 Q226,103 134,54 Q121,47 115,57 L93,92 Q86,104 97,109 Q182,153 247.5,209.5 Q313,266 359.5,332 Q406,398 433,471 Q460,544 467,621 Q469,636 463,641.5 Q457,647 443,647 L125,647 Q113,647 113,660 L113,695 Q113,707 125,707 L462,707 Q509,707 524,689.5 Q539,672 537,635"/> 
            <glyph glyph-name="꿀" unicode="&#xAFC0;" horiz-adv-x="910" d=" M467,770 Q477,776 482,776 L708,776 Q732,776 746.5,771 Q761,766 769,756.5 Q777,747 780.5,732 Q784,717 784,696 Q784,673 782.5,644.5 Q781,616 777,585.5 Q773,555 768.5,524.5 Q764,494 758,467 L895,467 Q900,467 905,463.5 Q910,460 910,454 L910,420 Q910,415 905,411 Q900,407 895,407 L503,407 L503,269 L690,269 Q714,269 729,265.5 Q744,262 753,254 Q762,246 765.5,231.5 Q769,217 769,196 L769,112 Q769,70 751.5,55.5 Q734,41 689,41 L258,41 Q244,41 240.5,37 Q237,33 237,18 L237,-53 Q237,-67 241,-71.5 Q245,-76 259,-76 L776,-76 Q781,-76 785.5,-79 Q790,-82 790,-87 L790,-122 Q790,-127 785.5,-130.5 Q781,-134 777,-134 L245,-134 Q198,-134 183.5,-116.5 Q169,-99 169,-57 L169,27 Q169,69 186.5,83.5 Q204,98 249,98 L679,98 Q693,98 697,102 Q701,106 701,121 L701,189 Q701,204 697.5,208 Q694,212 680,212 L181,212 Q176,212 171.5,215 Q167,218 167,223 L167,258 Q167,263 171.5,266 Q176,269 181,269 L434,269 L434,407 L45,407 Q39,407 34.5,411 Q30,415 30,420 L30,454 Q30,460 34.5,463.5 Q39,467 45,467 L343,467 Q360,522 371.5,583 Q383,644 382,697 Q382,711 377.5,714.5 Q373,718 359,718 L137,718 Q132,718 127,721.5 Q122,725 122,730 L122,764 Q122,770 127,773 Q132,776 137,776 L372,776 Q419,776 434,756.5 Q449,737 448,696 Q447,639 436.5,579.5 Q426,520 410,467 L691,467 Q697,489 702,518.5 Q707,548 710.5,579.5 Q714,611 716,642 Q718,673 718,697 Q718,711 713.5,714.5 Q709,718 695,718 L482,718 Q477,718 472,721.5 Q467,725 467,730 L467,764"/> 
            <glyph glyph-name="다" unicode="&#xB2E4;" horiz-adv-x="923" d=" M628,183 Q630,169 615,166 Q578,157 521.5,149 Q465,141 402.5,135 Q340,129 279,126 Q218,123 173,124 Q128,125 111.5,145 Q95,165 95,207 L95,637 Q95,679 111,693 Q127,707 171,707 L515,707 Q528,707 528,695 L528,659 Q528,647 515,647 L184,647 Q170,647 167,643.5 Q164,640 164,625 L164,212 Q164,197 169,192 Q174,187 188,186 Q236,184 289.5,186.5 Q343,189 397.5,194.5 Q452,200 504.5,207.5 Q557,215 604,224 Q620,227 623,213 M770,-140 L756,-140 L715,-140 Q701,-140 701,-126 L701,768 Q701,782 715,782 L756,782 Q770,782 770,768 L770,404 L908,404 Q914,404 918.5,400.5 Q923,397 923,391 L923,357 Q923,352 918.5,348 Q914,344 908,344 L770,344 L770,-126"/> 
            <glyph glyph-name="달" unicode="&#xB2EC;" horiz-adv-x="923" d=" M792,-131 Q792,-136 787.5,-139.5 Q783,-143 779,-143 L276,-143 Q229,-143 214.5,-125.5 Q200,-108 200,-66 L200,9 Q200,51 217.5,65.5 Q235,80 280,80 L680,80 Q694,80 698,84 Q702,88 702,103 L702,160 Q702,175 698.5,179 Q695,183 681,183 L212,183 Q207,183 202.5,186 Q198,189 198,194 L198,230 Q198,235 202.5,238 Q207,241 212,241 L692,241 Q716,241 731,237.5 Q746,234 755,226 Q764,218 767.5,203.5 Q771,189 771,168 L771,93 Q771,51 753.5,36.5 Q736,22 691,22 L290,22 Q276,22 272.5,18 Q269,14 269,-1 L269,-62 Q269,-76 273,-80.5 Q277,-85 291,-85 L778,-85 Q783,-85 787.5,-88 Q792,-91 792,-96 M634,400 Q636,390 632,386 Q628,382 622,380 Q585,371 529,363 Q473,355 411.5,349 Q350,343 289.5,340 Q229,337 184,338 Q139,339 122.5,359 Q106,379 106,421 L106,676 Q106,718 122,732 Q138,746 182,746 L522,746 Q535,746 535,734 L535,698 Q535,686 522,686 L195,686 Q181,686 178,682.5 Q175,679 175,664 L175,426 Q175,411 180,406 Q185,401 199,400 Q247,398 299.5,400.5 Q352,403 405,408.5 Q458,414 510,421.5 Q562,429 609,438 Q618,440 622.5,438 Q627,436 629,427 M770,294 L756,294 L715,294 Q701,294 701,308 L701,768 Q701,782 715,782 L756,782 Q770,782 770,768 L770,569 L908,569 Q914,569 918.5,565.5 Q923,562 923,556 L923,522 Q923,517 918.5,513 Q914,509 908,509 L770,509 L770,308"/> 
            <glyph glyph-name="데" unicode="&#xB370;" horiz-adv-x="838" d=" M531,169 Q533,155 518,152 Q483,144 440.5,137.5 Q398,131 351.5,127.5 Q305,124 256.5,122.5 Q208,121 161,122 Q116,123 99.5,143 Q83,163 83,205 L83,628 Q83,670 99,684 Q115,698 159,698 L443,698 Q456,698 456,686 L456,650 Q456,638 443,638 L172,638 Q158,638 155,634.5 Q152,631 152,616 L152,210 Q152,195 157,190 Q162,185 176,184 Q263,181 346,187 Q429,193 507,210 Q523,213 526,199 M595,445 L595,751 Q595,765 609,765 L647,765 Q661,765 661,751 L661,-88 Q661,-102 647,-102 L609,-102 Q595,-102 595,-88 L595,385 L385,385 Q372,385 372,397 L372,433 Q372,445 385,445 M838,-126 Q838,-140 824,-140 L786,-140 Q772,-140 772,-126 L772,768 Q772,782 786,782 L824,782 Q838,782 838,768"/> 
            <glyph glyph-name="딜" unicode="&#xB51C;" horiz-adv-x="826" d=" M805,294 L791,294 L750,294 Q736,294 736,308 L736,768 Q736,782 750,782 L791,782 Q805,782 805,768 L805,308 M826,-131 Q826,-136 821.5,-139.5 Q817,-143 813,-143 L309,-143 Q262,-143 247.5,-125.5 Q233,-108 233,-66 L233,9 Q233,51 250.5,65.5 Q268,80 313,80 L714,80 Q728,80 732,84 Q736,88 736,103 L736,160 Q736,175 732.5,179 Q729,183 715,183 L245,183 Q240,183 235.5,186 Q231,189 231,194 L231,230 Q231,235 235.5,238 Q240,241 245,241 L726,241 Q750,241 765,237.5 Q780,234 789,226 Q798,218 801.5,203.5 Q805,189 805,168 L805,93 Q805,51 787.5,36.5 Q770,22 725,22 L324,22 Q310,22 306.5,18 Q303,14 303,-1 L303,-62 Q303,-76 307,-80.5 Q311,-85 325,-85 L812,-85 Q817,-85 821.5,-88 Q826,-91 826,-96 M631,379 Q634,365 618,362 Q580,356 527.5,351 Q475,346 417.5,342.5 Q360,339 302,338 Q244,337 195,338 Q150,339 133.5,359 Q117,379 117,421 L117,677 Q117,719 133,733 Q149,747 193,747 L534,747 Q547,747 547,735 L547,699 Q547,687 534,687 L206,687 Q192,687 189,683.5 Q186,680 186,665 L186,426 Q186,411 191,406 Q196,401 210,400 Q306,397 410,402.5 Q514,408 609,421 Q619,423 622.5,419.5 Q626,416 627,410"/> 
            <glyph glyph-name="라" unicode="&#xB77C;" horiz-adv-x="923" d=" M170,89 Q125,91 109.5,107.5 Q94,124 94,166 L94,364 Q94,406 111.5,420.5 Q129,435 174,435 L426,435 Q440,435 444,439 Q448,443 448,458 L448,624 Q448,639 444.5,643 Q441,647 427,647 L112,647 Q107,647 102.5,650 Q98,653 98,658 L98,696 Q98,701 102.5,704 Q107,707 112,707 L438,707 Q462,707 477,703.5 Q492,700 501,692 Q510,684 513.5,669.5 Q517,655 517,634 L517,446 Q517,404 499.5,389.5 Q482,375 437,375 L184,375 Q170,375 166.5,371 Q163,367 163,352 L163,171 Q163,148 185,148 Q304,146 413.5,157 Q523,168 626,191 Q640,194 643,181 L649,148 Q651,135 636,131 Q583,119 524.5,110.5 Q466,102 406,96.5 Q346,91 286,89 Q226,87 170,89 M770,-140 L756,-140 L715,-140 Q701,-140 701,-126 L701,768 Q701,782 715,782 L756,782 Q770,782 770,768 L770,404 L908,404 Q914,404 918.5,400.5 Q923,397 923,391 L923,357 Q923,352 918.5,348 Q914,344 908,344 L770,344 L770,-126"/> 
            <glyph glyph-name="람" unicode="&#xB78C;" horiz-adv-x="923" d=" M199,105 Q199,147 215,161.5 Q231,176 275,176 L694,176 Q718,176 732.5,173 Q747,170 755.5,162 Q764,154 767,140 Q770,126 770,105 L770,-61 Q770,-103 754,-117.5 Q738,-132 694,-132 L275,-132 Q251,-132 236.5,-129 Q222,-126 213.5,-117.5 Q205,-109 202,-95.5 Q199,-82 199,-61 M180,282 Q135,282 119.5,299.5 Q104,317 104,359 L104,477 Q104,519 121.5,533.5 Q139,548 184,548 L425,548 Q439,548 443,552 Q447,556 447,571 L447,661 Q447,676 443.5,680 Q440,684 426,684 L120,684 Q108,684 108,697 L108,732 Q108,744 120,744 L437,744 Q461,744 476,740.5 Q491,737 500,729 Q509,721 512.5,706.5 Q516,692 516,671 L516,559 Q516,517 498.5,502.5 Q481,488 436,488 L194,488 Q180,488 176.5,484 Q173,480 173,465 L173,364 Q173,341 195,341 Q313,341 414.5,350 Q516,359 617,376 Q627,378 630.5,376 Q634,374 636,366 L642,334 Q644,325 640.5,322 Q637,319 628,317 Q537,300 421,290.5 Q305,281 180,282 M292,116 Q278,116 273,110.5 Q268,105 268,90 L268,-46 Q268,-61 273,-66.5 Q278,-72 292,-72 L677,-72 Q691,-72 696,-66.5 Q701,-61 701,-46 L701,90 Q701,105 696,110.5 Q691,116 677,116 M770,230 L756,230 L715,230 Q701,230 701,244 L701,768 Q701,782 715,782 L756,782 Q770,782 770,768 L770,529 L908,529 Q914,529 918.5,525.5 Q923,522 923,516 L923,482 Q923,477 918.5,473 Q914,469 908,469 L770,469 L770,244"/> 
            <glyph glyph-name="레" unicode="&#xB808;" horiz-adv-x="838" d=" M152,95 Q107,97 91.5,113.5 Q76,130 76,172 L76,363 Q76,405 93.5,419.5 Q111,434 156,434 L322,434 Q336,434 340,438 Q344,442 344,457 L344,617 Q344,632 340.5,636 Q337,640 323,640 L94,640 Q89,640 84.5,643 Q80,646 80,651 L80,689 Q80,694 84.5,697 Q89,700 94,700 L334,700 Q358,700 373,696.5 Q388,693 397,685 Q406,677 409.5,662.5 Q413,648 413,627 L413,445 Q413,403 395.5,388.5 Q378,374 333,374 L166,374 Q152,374 148.5,370 Q145,366 145,351 L145,177 Q145,154 167,154 Q248,154 328,164 Q408,174 483,191 Q497,194 500,181 L506,147 Q508,134 493,130 Q408,110 322,101 Q236,92 152,95 M595,428 L595,751 Q595,765 609,765 L647,765 Q661,765 661,751 L661,-88 Q661,-102 647,-102 L609,-102 Q595,-102 595,-88 L595,368 L465,368 Q452,368 452,380 L452,416 Q452,428 465,428 M838,-126 Q838,-140 824,-140 L786,-140 Q772,-140 772,-126 L772,768 Q772,782 786,782 L824,782 Q838,782 838,768"/> 
            <glyph glyph-name="료" unicode="&#xB8CC;" horiz-adv-x="910" d=" M900,78 Q910,71 910,65 L910,31 Q910,26 905,22 Q900,18 895,18 L45,18 Q39,18 34.5,22 Q30,26 30,31 L30,65 Q30,71 34.5,74.5 Q39,78 45,78 L294,78 L294,255 L231,255 Q184,255 169.5,272.5 Q155,290 155,332 L155,454 Q155,497 172.5,511 Q190,525 235,525 L690,525 Q704,525 707.5,529 Q711,533 711,548 L711,652 Q711,667 707.5,671 Q704,675 690,675 L169,675 Q164,675 159.5,678 Q155,681 155,686 L155,724 Q155,729 159.5,732 Q164,735 169,735 L701,735 Q725,735 740,731.5 Q755,728 764,720 Q773,712 776.5,697.5 Q780,683 780,662 L780,537 Q780,494 762.5,480 Q745,466 700,466 L245,466 Q231,466 227.5,462 Q224,458 224,443 L224,338 Q224,324 228,319.5 Q232,315 246,315 L787,315 Q792,315 796.5,312 Q801,309 801,304 L801,267 Q801,262 796.5,258.5 Q792,255 788,255 L647,255 L647,78 L895,78 M362,78 L579,78 L579,255 L362,255"/> 
            <glyph glyph-name="리" unicode="&#xB9AC;" horiz-adv-x="805" d=" M805,-140 L791,-140 L750,-140 Q736,-140 736,-126 L736,768 Q736,782 750,782 L791,782 Q805,782 805,768 L805,-126 M189,86 Q144,88 128.5,104.5 Q113,121 113,163 L113,362 Q113,404 130.5,418.5 Q148,433 193,433 L445,433 Q459,433 463,437 Q467,441 467,456 L467,624 Q467,639 463.5,643 Q460,647 446,647 L131,647 Q126,647 121.5,650 Q117,653 117,658 L117,696 Q117,701 121.5,704 Q126,707 131,707 L457,707 Q481,707 496,703.5 Q511,700 520,692 Q529,684 532.5,669.5 Q536,655 536,634 L536,444 Q536,402 518.5,387.5 Q501,373 456,373 L203,373 Q189,373 185.5,369 Q182,365 182,350 L182,168 Q182,145 204,145 Q323,143 432.5,154 Q542,165 645,188 Q659,191 662,178 L668,145 Q671,132 655,128 Q602,116 543.5,107.5 Q485,99 424.5,93.5 Q364,88 304,86 Q244,84 189,86"/> 
            <glyph glyph-name="마" unicode="&#xB9C8;" horiz-adv-x="923" d=" M95,636 Q95,678 111,692.5 Q127,707 171,707 L465,707 Q489,707 503.5,704 Q518,701 526.5,693 Q535,685 538,671 Q541,657 541,636 L541,193 Q541,151 525,136.5 Q509,122 465,122 L171,122 Q147,122 132.5,125 Q118,128 109.5,136.5 Q101,145 98,158.5 Q95,172 95,193 M188,647 Q174,647 169,641.5 Q164,636 164,621 L164,208 Q164,193 169,187.5 Q174,182 188,182 L448,182 Q462,182 467,187.5 Q472,193 472,208 L472,621 Q472,636 467,641.5 Q462,647 448,647 M770,-140 L756,-140 L715,-140 Q701,-140 701,-126 L701,768 Q701,782 715,782 L756,782 Q770,782 770,768 L770,404 L908,404 Q914,404 918.5,400.5 Q923,397 923,391 L923,357 Q923,352 918.5,348 Q914,344 908,344 L770,344 L770,-126"/> 
            <glyph glyph-name="만" unicode="&#xB9CC;" horiz-adv-x="923" d=" M106,655 Q106,697 122,711.5 Q138,726 182,726 L457,726 Q481,726 495.5,723 Q510,720 518.5,712 Q527,704 530,690 Q533,676 533,655 L533,346 Q533,304 517,289.5 Q501,275 457,275 L182,275 Q158,275 143.5,278 Q129,281 120.5,289.5 Q112,298 109,311.5 Q106,325 106,346 M199,666 Q185,666 180,660.5 Q175,655 175,640 L175,361 Q175,346 180,340.5 Q185,335 199,335 L440,335 Q454,335 459,340.5 Q464,346 464,361 L464,640 Q464,655 459,660.5 Q454,666 440,666 M770,118 L756,118 L715,118 Q701,118 701,132 L701,768 Q701,782 715,782 L756,782 Q770,782 770,768 L770,482 L908,482 Q914,482 918.5,478.5 Q923,475 923,469 L923,435 Q923,430 918.5,426 Q914,422 908,422 L770,422 L770,132 M815,-116 Q805,-122 800,-122 L291,-122 Q244,-122 229.5,-104 Q215,-86 215,-45 L215,150 Q215,164 229,164 L270,164 Q284,164 284,150 L284,-41 Q284,-55 288.5,-58.5 Q293,-62 307,-62 L800,-62 Q805,-62 810,-65.5 Q815,-69 815,-74 L815,-110"/> 
            <glyph glyph-name="매" unicode="&#xB9E4;" horiz-adv-x="838" d=" M76,631 Q76,673 92,687.5 Q108,702 152,702 L385,702 Q409,702 423.5,699 Q438,696 446.5,688 Q455,680 458,666 Q461,652 461,631 L461,196 Q461,154 445,139.5 Q429,125 385,125 L152,125 Q128,125 113.5,128 Q99,131 90.5,139.5 Q82,148 79,161.5 Q76,175 76,196 M645,404 L772,404 L772,768 Q772,782 786,782 L824,782 Q838,782 838,768 L838,-126 Q838,-140 824,-140 L786,-140 Q772,-140 772,-126 L772,344 L645,344 L645,-88 Q645,-102 631,-102 L593,-102 Q579,-102 579,-88 L579,751 Q579,765 593,765 L631,765 Q645,765 645,751 M169,642 Q155,642 150,636.5 Q145,631 145,616 L145,211 Q145,196 150,190.5 Q155,185 169,185 L368,185 Q382,185 387,190.5 Q392,196 392,211 L392,616 Q392,631 387,636.5 Q382,642 368,642"/> 
            <glyph glyph-name="박" unicode="&#xBC15;" horiz-adv-x="923" d=" M181,303 Q157,303 142.5,306 Q128,309 120,317.5 Q112,326 109,339.5 Q106,353 106,374 L106,734 Q106,739 110,742.5 Q114,746 119,746 L162,746 Q167,746 170.5,742 Q174,738 174,734 L174,578 L465,578 L465,733 Q465,738 468.5,742 Q472,746 477,746 L520,746 Q525,746 529,742.5 Q533,739 533,734 L533,367 Q533,329 517,316 Q501,303 457,303 M187,188 Q197,194 202,194 L694,194 Q741,194 755.5,176.5 Q770,159 770,118 L770,-130 Q770,-144 756,-144 L715,-144 Q701,-144 701,-130 L701,113 Q701,127 696.5,130.5 Q692,134 678,134 L202,134 Q197,134 192,137.5 Q187,141 187,146 L187,182 M770,250 L756,250 L715,250 Q701,250 701,264 L701,768 Q701,782 715,782 L756,782 Q770,782 770,768 L770,520 L908,520 Q914,520 918.5,516.5 Q923,513 923,507 L923,473 Q923,468 918.5,464 Q914,460 908,460 L770,460 L770,264 M174,519 L174,386 Q174,371 179,366.5 Q184,362 198,362 L441,362 Q455,362 460,366.5 Q465,371 465,386 L465,519"/> 
            <glyph glyph-name="받" unicode="&#xBC1B;" horiz-adv-x="923" d=" M181,308 Q157,308 142.5,311 Q128,314 120,322.5 Q112,331 109,344.5 Q106,358 106,379 L106,739 Q106,744 110,747.5 Q114,751 119,751 L162,751 Q167,751 170.5,747 Q174,743 174,739 L174,583 L465,583 L465,738 Q465,743 468.5,747 Q472,751 477,751 L520,751 Q525,751 529,747.5 Q533,744 533,739 L533,372 Q533,334 517,321 Q501,308 457,308 M792,-118 Q792,-132 779,-132 L285,-132 Q241,-132 225,-117.5 Q209,-103 209,-61 L209,128 Q209,170 225,184.5 Q241,199 285,199 L762,199 Q775,199 775,186 L775,153 Q775,139 762,139 L303,139 Q289,139 284,133.5 Q279,128 279,113 L279,-46 Q279,-60 284,-66 Q289,-72 303,-72 L779,-72 Q792,-72 792,-85 M174,524 L174,391 Q174,376 179,371.5 Q184,367 198,367 L441,367 Q455,367 460,371.5 Q465,376 465,391 L465,524 M770,257 L756,257 L715,257 Q701,257 701,271 L701,768 Q701,782 715,782 L756,782 Q770,782 770,768 L770,543 L908,543 Q914,543 918.5,539.5 Q923,536 923,530 L923,496 Q923,491 918.5,487 Q914,483 908,483 L770,483 L770,271"/> 
            <glyph glyph-name="발" unicode="&#xBC1C;" horiz-adv-x="923" d=" M181,335 Q157,335 142.5,338 Q128,341 120,349.5 Q112,358 109,371.5 Q106,385 106,406 L106,756 Q106,761 110,764.5 Q114,768 119,768 L162,768 Q167,768 170.5,764 Q174,760 174,756 L174,600 L466,600 L466,755 Q466,760 469.5,764 Q473,768 478,768 L521,768 Q526,768 530,764.5 Q534,761 534,756 L534,399 Q534,361 518,348 Q502,335 458,335 M791,-131 Q791,-136 786.5,-139.5 Q782,-143 778,-143 L275,-143 Q228,-143 213.5,-125.5 Q199,-108 199,-66 L199,9 Q199,51 216.5,65.5 Q234,80 279,80 L679,80 Q693,80 697,84 Q701,88 701,103 L701,160 Q701,175 697.5,179 Q694,183 680,183 L211,183 Q206,183 201.5,186 Q197,189 197,194 L197,230 Q197,235 201.5,238 Q206,241 211,241 L691,241 Q715,241 730,237.5 Q745,234 754,226 Q763,218 766.5,203.5 Q770,189 770,168 L770,93 Q770,51 752.5,36.5 Q735,22 690,22 L289,22 Q275,22 271.5,18 Q268,14 268,-1 L268,-62 Q268,-76 272,-80.5 Q276,-85 290,-85 L777,-85 Q782,-85 786.5,-88 Q791,-91 791,-96 M174,541 L174,418 Q174,403 179,398.5 Q184,394 198,394 L442,394 Q456,394 461,398.5 Q466,403 466,418 L466,541 M770,295 L756,295 L715,295 Q701,295 701,309 L701,768 Q701,782 715,782 L756,782 Q770,782 770,768 L770,569 L908,569 Q914,569 918.5,565.5 Q923,562 923,556 L923,522 Q923,517 918.5,513 Q914,509 908,509 L770,509 L770,309"/> 
            <glyph glyph-name="뷰" unicode="&#xBDF0;" horiz-adv-x="910" d=" M234,378 Q210,378 195.5,381 Q181,384 173,392.5 Q165,401 162,414.5 Q159,428 159,449 L159,767 Q159,772 163,775.5 Q167,779 172,779 L215,779 Q220,779 223.5,775 Q227,771 227,767 L227,634 L708,634 L708,766 Q708,771 711.5,775 Q715,779 720,779 L763,779 Q768,779 772,775.5 Q776,772 776,767 L776,442 Q776,404 760,391 Q744,378 700,378 M289,-134 Q284,-134 280,-129.5 Q276,-125 276,-119 L276,194 L45,194 Q39,194 34.5,198 Q30,202 30,207 L30,241 Q30,247 34.5,250.5 Q39,254 45,254 L895,254 Q900,254 905,250.5 Q910,247 910,241 L910,207 Q910,202 905,198 Q900,194 895,194 L655,194 L655,-119 Q655,-125 651.5,-129.5 Q648,-134 642,-134 L599,-134 Q594,-134 590,-129.5 Q586,-125 586,-119 L586,194 L345,194 L345,-119 Q345,-125 341.5,-129.5 Q338,-134 332,-134 M227,575 L227,461 Q227,446 232,441.5 Q237,437 251,437 L684,437 Q698,437 703,441.5 Q708,446 708,461 L708,575"/> 
            <glyph glyph-name="빙" unicode="&#xBE59;" horiz-adv-x="813" d=" M805,224 L791,224 L750,224 Q736,224 736,238 L736,768 Q736,782 750,782 L791,782 Q805,782 805,768 L805,238 M813,39 Q813,-4 790,-38 Q767,-72 727.5,-95.5 Q688,-119 635.5,-131.5 Q583,-144 523,-144 Q458,-144 405,-131.5 Q352,-119 314,-95.5 Q276,-72 255,-38 Q234,-4 234,39 Q234,81 255,114.5 Q276,148 314,171.5 Q352,195 405,207.5 Q458,220 523,220 Q583,220 635.5,207.5 Q688,195 727.5,172 Q767,149 790,115.5 Q813,82 813,39 M742,36 Q742,66 724,89 Q706,112 675.5,127.5 Q645,143 605,151.5 Q565,160 522,160 Q474,160 434,151.5 Q394,143 365.5,127.5 Q337,112 321,89 Q305,66 305,36 Q305,7 321,-15.5 Q337,-38 365.5,-53 Q394,-68 434,-76 Q474,-84 522,-84 Q565,-84 605,-76 Q645,-68 675.5,-53 Q706,-38 724,-15.5 Q742,7 742,36 M186,308 Q162,308 147.5,311 Q133,314 125,322.5 Q117,331 114,344.5 Q111,358 111,379 L111,739 Q111,744 115,747.5 Q119,751 124,751 L167,751 Q172,751 175.5,747 Q179,743 179,739 L179,583 L470,583 L470,738 Q470,743 473.5,747 Q477,751 482,751 L525,751 Q530,751 534,747.5 Q538,744 538,739 L538,372 Q538,334 522,321 Q506,308 462,308 M179,524 L179,391 Q179,376 184,371.5 Q189,367 203,367 L446,367 Q460,367 465,371.5 Q470,376 470,391 L470,524"/> 
            <glyph glyph-name="상" unicode="&#xC0C1;" horiz-adv-x="923" d=" M203,39 Q203,81 224,114.5 Q245,148 283,171.5 Q321,195 374,207.5 Q427,220 492,220 Q552,220 604.5,207.5 Q657,195 696.5,172 Q736,149 759,115.5 Q782,82 782,39 Q782,-4 759,-38 Q736,-72 696.5,-95.5 Q657,-119 604.5,-131.5 Q552,-144 492,-144 Q427,-144 374,-131.5 Q321,-119 283,-95.5 Q245,-72 224,-38 Q203,-4 203,39 M274,36 Q274,7 290,-15.5 Q306,-38 334.5,-53 Q363,-68 403,-76 Q443,-84 491,-84 Q534,-84 574,-76 Q614,-68 644.5,-53 Q675,-38 693,-15.5 Q711,7 711,36 Q711,66 693,89 Q675,112 644.5,127.5 Q614,143 574,151.5 Q534,160 491,160 Q443,160 403,151.5 Q363,143 334.5,127.5 Q306,112 290,89 Q274,66 274,36 M366,746 Q366,673 351,610 Q363,568 384.5,530 Q406,492 435,459 Q464,426 498.5,399.5 Q533,373 571,355 Q577,352 576.5,346.5 Q576,341 574,337 L553,304 Q550,299 546,297 Q542,295 533,300 Q510,312 480.5,332.5 Q451,353 421,381 Q391,409 364,442.5 Q337,476 319,512 Q286,436 230,374 Q174,312 99,263 Q94,260 88,259 Q82,258 78,263 L53,296 Q50,300 52,306 Q54,312 59,315 Q178,388 238,499 Q298,610 296,747 Q296,763 308,763 L355,760 Q366,760 366,746 M770,225 L756,225 L715,225 Q701,225 701,239 L701,768 Q701,782 715,782 L756,782 Q770,782 770,768 L770,527 L908,527 Q914,527 918.5,523.5 Q923,520 923,514 L923,480 Q923,475 918.5,471 Q914,467 908,467 L770,467 L770,239"/> 
            <glyph glyph-name="생" unicode="&#xC0DD;" horiz-adv-x="844" d=" M224,39 Q224,82 247,115.5 Q270,149 311.5,172.5 Q353,196 409.5,208 Q466,220 534,220 Q596,220 652,208 Q708,196 751,173 Q794,150 819,116.5 Q844,83 844,39 Q844,-5 819,-39.5 Q794,-74 751,-97 Q708,-120 652,-132 Q596,-144 534,-144 Q466,-144 409.5,-132 Q353,-120 311.5,-97 Q270,-74 247,-39.5 Q224,-5 224,39 M298,36 Q298,6 315.5,-16.5 Q333,-39 364.5,-54 Q396,-69 439,-76.5 Q482,-84 533,-84 Q578,-84 621,-76.5 Q664,-69 697,-54 Q730,-39 750.5,-16.5 Q771,6 771,36 Q771,67 750.5,90 Q730,113 697,128.5 Q664,144 621,152 Q578,160 533,160 Q482,160 439,152 Q396,144 364.5,128.5 Q333,113 315.5,90 Q298,67 298,36 M645,263 L631,263 L593,263 Q579,263 579,277 L579,751 Q579,765 593,765 L631,765 Q645,765 645,751 L645,530 L772,530 L772,768 Q772,782 786,782 L824,782 Q838,782 838,768 L838,246 Q838,232 824,232 L786,232 Q772,232 772,246 L772,470 L645,470 L645,277 M333,735 Q332,659 312,590 Q324,555 344,521 Q364,487 389.5,457 Q415,427 445,402.5 Q475,378 506,362 Q517,356 509,344 L485,310 Q482,306 478.5,305.5 Q475,305 466,310 Q411,344 362,397 Q313,450 281,507 Q252,446 208.5,391.5 Q165,337 104,287 Q96,281 90.5,281 Q85,281 83,284 L55,316 Q46,327 60,337 Q111,377 148,421 Q185,465 210,514.5 Q235,564 248,619 Q261,674 263,736 Q262,743 266,747.5 Q270,752 275,752 L322,749 Q333,749 333,735"/> 
            <glyph glyph-name="션" unicode="&#xC158;" horiz-adv-x="835" d=" M736,611 L736,768 Q736,782 750,782 L791,782 Q805,782 805,768 L805,130 Q805,116 791,116 L750,116 Q736,116 736,130 L736,375 L532,375 Q519,375 519,387 L519,422 Q519,434 532,434 L736,434 L736,552 L532,552 Q519,552 519,564 L519,599 Q519,611 532,611 M372,736 Q370,640 347,559 Q359,521 380,483.5 Q401,446 428,412 Q455,378 486.5,350 Q518,322 552,304 Q557,301 557,296 Q557,291 555,286 L533,254 Q529,249 525,247.5 Q521,246 512,251 Q486,265 458.5,289 Q431,313 404.5,343 Q378,373 354.5,406 Q331,439 314,471 Q244,323 104,231 Q99,228 93,227 Q87,226 83,231 L58,264 Q55,268 57,274 Q59,280 64,283 Q118,316 162.5,365 Q207,414 238.5,473 Q270,532 286.5,599.5 Q303,667 302,737 Q302,753 314,753 L361,750 Q372,750 372,736 M835,-116 Q825,-122 820,-122 L319,-122 Q272,-122 257.5,-104.5 Q243,-87 243,-46 L243,150 Q243,164 257,164 L298,164 Q312,164 312,150 L312,-41 Q312,-55 316.5,-58.5 Q321,-62 335,-62 L820,-62 Q825,-62 830,-65.5 Q835,-69 835,-74 L835,-110"/> 
            <glyph glyph-name="슈" unicode="&#xC288;" horiz-adv-x="910" d=" M289,-134 Q284,-134 280,-129.5 Q276,-125 276,-119 L276,207 L45,207 Q39,207 34.5,211 Q30,215 30,220 L30,254 Q30,260 34.5,263.5 Q39,267 45,267 L895,267 Q900,267 905,263.5 Q910,260 910,254 L910,220 Q910,215 905,211 Q900,207 895,207 L655,207 L655,-119 Q655,-125 651.5,-129.5 Q648,-134 642,-134 L599,-134 Q594,-134 590,-129.5 Q586,-125 586,-119 L586,207 L345,207 L345,-119 Q345,-125 341.5,-129.5 Q338,-134 332,-134 M505,760 Q503,747 500,735 Q497,723 494,712 Q497,701 501,691.5 Q505,682 510,673 Q527,640 560,606.5 Q593,573 636,543.5 Q679,514 729,491 Q779,468 832,455 Q838,453 840,447 Q842,441 840,436 L824,402 Q821,397 817.5,395 Q814,393 804,395 Q751,409 699,433.5 Q647,458 602,490 Q557,522 520.5,559 Q484,596 461,634 Q418,556 338,493.5 Q258,431 137,383 Q121,377 117,387 L98,422 Q96,427 97.5,433 Q99,439 105,441 Q170,463 229,499.5 Q288,536 333,580 Q378,624 405.5,672 Q433,720 436,767 Q437,779 449,779 L494,774 Q499,773 503,770 Q507,767 505,760"/> 
            <glyph glyph-name="시" unicode="&#xC2DC;" horiz-adv-x="805" d=" M376,717 Q376,651 370.5,590.5 Q365,530 353,474 Q363,434 384,389.5 Q405,345 433.5,301 Q462,257 497.5,215.5 Q533,174 573,141 Q578,137 578.5,131 Q579,125 576,121 L551,90 Q542,79 530,90 Q502,114 472.5,147.5 Q443,181 415.5,218 Q388,255 364,294 Q340,333 323,369 Q291,278 239,201.5 Q187,125 115,59 Q105,51 98,58 L68,89 Q65,92 65.5,97 Q66,102 71,107 Q132,165 177,229 Q222,293 250.5,367 Q279,441 292.5,528 Q306,615 306,719 Q306,726 309.5,729.5 Q313,733 318,733 L365,731 Q376,731 376,717 M805,-140 L791,-140 L750,-140 Q736,-140 736,-126 L736,768 Q736,782 750,782 L791,782 Q805,782 805,768 L805,-126"/> 
            <glyph glyph-name="식" unicode="&#xC2DD;" horiz-adv-x="805" d=" M366,741 Q366,668 351,605 Q363,563 384.5,525 Q406,487 435,454 Q464,421 498.5,394.5 Q533,368 571,350 Q577,347 576.5,341.5 Q576,336 574,332 L553,299 Q550,294 546,292 Q542,290 533,295 Q510,307 480.5,327.5 Q451,348 421,376 Q391,404 364,437.5 Q337,471 319,507 Q286,431 230,369 Q174,307 99,258 Q94,255 88,254 Q82,253 78,258 L53,291 Q51,295 52.5,301 Q54,307 59,310 Q178,383 238,494 Q298,605 296,742 Q296,758 308,758 L355,755 Q366,755 366,741 M222,188 Q232,194 237,194 L729,194 Q776,194 790.5,176.5 Q805,159 805,118 L805,-130 Q805,-144 791,-144 L750,-144 Q736,-144 736,-130 L736,113 Q736,127 731.5,130.5 Q727,134 713,134 L237,134 Q232,134 227,137.5 Q222,141 222,146 L222,182 M805,249 L791,249 L750,249 Q736,249 736,263 L736,768 Q736,782 750,782 L791,782 Q805,782 805,768 L805,263"/> 
            <glyph glyph-name="아" unicode="&#xC544;" horiz-adv-x="923" d=" M552,401 Q552,345 538.5,288 Q525,231 496,185 Q467,139 421.5,109.5 Q376,80 312,80 Q246,80 200.5,109 Q155,138 127.5,184.5 Q100,231 88,288 Q76,345 76,401 Q76,460 88,517.5 Q100,575 127.5,621 Q155,667 200.5,695 Q246,723 312,723 Q376,723 421.5,695 Q467,667 496,621.5 Q525,576 538.5,518.5 Q552,461 552,401 M481,402 Q481,447 471.5,493 Q462,539 442,576 Q422,613 390,636 Q358,659 312,659 Q264,659 232.5,636 Q201,613 182,576 Q163,539 155,493 Q147,447 147,402 Q147,359 154.5,313 Q162,267 181,229.5 Q200,192 232,168 Q264,144 312,144 Q358,144 390,168 Q422,192 442,229.5 Q462,267 471.5,313 Q481,359 481,402 M770,-140 L756,-140 L715,-140 Q701,-140 701,-126 L701,768 Q701,782 715,782 L756,782 Q770,782 770,768 L770,404 L908,404 Q914,404 918.5,400.5 Q923,397 923,391 L923,357 Q923,352 918.5,348 Q914,344 908,344 L770,344 L770,-126"/> 
            <glyph glyph-name="어" unicode="&#xC5B4;" horiz-adv-x="805" d=" M805,-140 L791,-140 L750,-140 Q736,-140 736,-126 L736,372 L557,372 Q554,319 538.5,267 Q523,215 494,173.5 Q465,132 421.5,106 Q378,80 318,80 Q252,80 206.5,109 Q161,138 133.5,184.5 Q106,231 94,288 Q82,345 82,401 Q82,460 94,517.5 Q106,575 133.5,621 Q161,667 206.5,695 Q252,723 318,723 Q378,723 421.5,698.5 Q465,674 494,633 Q523,592 538.5,539.5 Q554,487 557,432 L736,432 L736,768 Q736,782 750,782 L791,782 Q805,782 805,768 L805,-126 M487,402 Q487,447 477.5,493 Q468,539 448,576 Q428,613 396,636 Q364,659 318,659 Q270,659 238.5,636 Q207,613 188,576 Q169,539 161,493 Q153,447 153,402 Q153,359 160.5,313 Q168,267 187,229.5 Q206,192 238,168 Q270,144 318,144 Q364,144 396,168 Q428,192 448,229.5 Q468,267 477.5,313 Q487,359 487,402"/> 
            <glyph glyph-name="여" unicode="&#xC5EC;" horiz-adv-x="805" d=" M805,-140 L791,-140 L750,-140 Q736,-140 736,-126 L736,226 L524,226 Q510,195 491,168 Q472,141 446.5,121.5 Q421,102 389,91 Q357,80 318,80 Q252,80 206.5,109 Q161,138 133.5,184.5 Q106,231 94,288 Q82,345 82,401 Q82,460 94,517.5 Q106,575 133.5,621 Q161,667 206.5,695 Q252,723 318,723 Q357,723 388.5,712.5 Q420,702 445.5,683 Q471,664 490,638 Q509,612 523,581 L736,581 L736,768 Q736,782 750,782 L791,782 Q805,782 805,768 L805,-126 M487,402 Q487,447 477.5,493 Q468,539 448,576 Q428,613 396,636 Q364,659 318,659 Q270,659 238.5,636 Q207,613 188,576 Q169,539 161,493 Q153,447 153,402 Q153,359 160.5,313 Q168,267 187,229.5 Q206,192 238,168 Q270,144 318,144 Q364,144 396,168 Q428,192 448,229.5 Q468,267 477.5,313 Q487,359 487,402 M558,401 Q558,342 543,285 L736,285 L736,522 L543,522 Q558,463 558,401"/> 
            <glyph glyph-name="역" unicode="&#xC5ED;" horiz-adv-x="805" d=" M805,245 L791,245 L750,245 Q736,245 736,259 L736,381 L521,381 Q489,339 438,316 Q387,293 326,293 Q277,293 234,309 Q191,325 159,354.5 Q127,384 108.5,424.5 Q90,465 90,515 Q90,567 108.5,608.5 Q127,650 159,678.5 Q191,707 234,722.5 Q277,738 326,738 Q388,738 444,711 Q500,684 532,634 L736,634 L736,768 Q736,782 750,782 L791,782 Q805,782 805,768 L805,259 M496,516 Q496,555 482,585 Q468,615 444.5,635 Q421,655 390.5,665 Q360,675 326,675 Q291,675 261,665 Q231,655 208.5,635 Q186,615 173,585 Q160,555 160,516 Q160,479 172.5,449.5 Q185,420 207,399 Q229,378 259.5,367 Q290,356 326,356 Q360,356 390.5,367 Q421,378 444.5,399 Q468,420 482,449.5 Q496,479 496,516 M222,188 Q232,194 237,194 L729,194 Q776,194 790.5,176.5 Q805,159 805,118 L805,-130 Q805,-144 791,-144 L750,-144 Q736,-144 736,-130 L736,113 Q736,127 731.5,130.5 Q727,134 713,134 L237,134 Q232,134 227,137.5 Q222,141 222,146 L222,182 M566,515 Q566,477 553,440 L736,440 L736,575 L558,575 Q566,545 566,515"/> 
            <glyph glyph-name="온" unicode="&#xC628;" horiz-adv-x="910" d=" M900,287 Q910,280 910,274 L910,240 Q910,235 905,231 Q900,227 895,227 L45,227 Q39,227 34.5,231 Q30,235 30,240 L30,274 Q30,280 34.5,283.5 Q39,287 45,287 L434,287 L434,411 Q387,414 338.5,425 Q290,436 250,457.5 Q210,479 184.5,511.5 Q159,544 159,590 Q159,644 189.5,678.5 Q220,713 266.5,733 Q313,753 367.5,760.5 Q422,768 470,768 Q519,768 574,759 Q629,750 675,729.5 Q721,709 751,675 Q781,641 781,590 Q781,543 755.5,510.5 Q730,478 689.5,456.5 Q649,435 599.5,424.5 Q550,414 503,411 L503,287 L895,287 M470,704 Q437,704 395,700 Q353,696 316.5,683.5 Q280,671 254.5,648.5 Q229,626 229,589 Q229,552 254.5,529.5 Q280,507 316.5,494.5 Q353,482 395,478 Q437,474 470,474 Q503,474 544.5,478 Q586,482 623,494.5 Q660,507 685.5,529.5 Q711,552 711,589 Q711,626 685.5,648.5 Q660,671 623.5,683.5 Q587,696 545,700 Q503,704 470,704 M802,-116 Q792,-122 787,-122 L244,-122 Q197,-122 182.5,-102.5 Q168,-83 168,-42 L168,133 Q168,147 182,147 L223,147 Q237,147 237,133 L237,-41 Q237,-55 241.5,-58.5 Q246,-62 260,-62 L787,-62 Q792,-62 797,-65.5 Q802,-69 802,-74 L802,-110"/> 
            <glyph glyph-name="완" unicode="&#xC644;" horiz-adv-x="923" d=" M557,564 Q557,530 543.5,500 Q530,470 505,446 Q480,422 444,406 Q408,390 363,386 L363,271 Q439,273 509,276.5 Q579,280 640,287 Q649,288 651.5,285.5 Q654,283 655,278 L659,244 Q660,238 657.5,235 Q655,232 646,230 Q565,219 465.5,214.5 Q366,210 266,210 L58,210 Q52,210 47.5,214 Q43,218 43,223 L43,258 Q43,264 47.5,267 Q52,270 58,270 L231,270 L294,270 L294,386 Q250,390 215,406 Q180,422 155.5,445.5 Q131,469 118,499.5 Q105,530 105,564 Q105,605 120.5,638.5 Q136,672 165.5,695.5 Q195,719 236.5,732 Q278,745 329,745 Q378,745 419.5,732 Q461,719 491.5,695.5 Q522,672 539.5,638.5 Q557,605 557,564 M489,565 Q489,594 476,615.5 Q463,637 441,651.5 Q419,666 390,673 Q361,680 329,680 Q296,680 267.5,673 Q239,666 218,651.5 Q197,637 185,615.5 Q173,594 173,565 Q173,538 184.5,516 Q196,494 217,479 Q238,464 266.5,456 Q295,448 329,448 Q361,448 390,456.5 Q419,465 441,480.5 Q463,496 476,517.5 Q489,539 489,565 M770,95 L756,95 L715,95 Q701,95 701,109 L701,768 Q701,782 715,782 L756,782 Q770,782 770,768 L770,447 L908,447 Q914,447 918.5,443.5 Q923,440 923,434 L923,400 Q923,395 918.5,391 Q914,387 908,387 L770,387 L770,109 M815,-116 Q805,-122 800,-122 L285,-122 Q238,-122 223.5,-104 Q209,-86 209,-45 L209,119 Q209,133 223,133 L264,133 Q278,133 278,119 L278,-41 Q278,-55 282.5,-58.5 Q287,-62 301,-62 L800,-62 Q805,-62 810,-65.5 Q815,-69 815,-74 L815,-110"/> 
            <glyph glyph-name="용" unicode="&#xC6A9;" horiz-adv-x="910" d=" M900,309 Q910,302 910,296 L910,262 Q910,257 905,253 Q900,249 895,249 L45,249 Q39,249 34.5,253 Q30,257 30,262 L30,296 Q30,302 34.5,305.5 Q39,309 45,309 L272,309 L272,470 Q224,490 191.5,523 Q159,556 159,607 Q159,656 190.5,689 Q222,722 268.5,741 Q315,760 369.5,768 Q424,776 470,776 Q517,776 571.5,767 Q626,758 672.5,738 Q719,718 750,685.5 Q781,653 781,607 Q781,558 748.5,525 Q716,492 667,472 L667,309 L895,309 M780,17 Q780,-34 748,-66 Q716,-98 669,-116 Q622,-134 567.5,-140.5 Q513,-147 468,-147 Q438,-147 403.5,-144 Q369,-141 334.5,-134.5 Q300,-128 268,-116 Q236,-104 211.5,-85.5 Q187,-67 172,-42 Q157,-17 157,17 Q157,67 189,98.5 Q221,130 268,148 Q315,166 369.5,173 Q424,180 468,180 Q513,180 567.5,173.5 Q622,167 669.5,149 Q717,131 748.5,99 Q780,67 780,17 M470,713 Q438,713 397,709 Q356,705 319.5,693 Q283,681 257.5,660 Q232,639 232,606 Q232,573 257.5,552 Q283,531 319.5,519 Q356,507 397,503 Q438,499 470,499 Q501,499 542,503 Q583,507 620,519 Q657,531 682.5,552 Q708,573 708,606 Q708,639 682.5,660 Q657,681 620,693 Q583,705 542,709 Q501,713 470,713 M707,16 Q707,49 680,68.5 Q653,88 615,99 Q577,110 536.5,113.5 Q496,117 468,117 Q439,117 398.5,113.5 Q358,110 320.5,99 Q283,88 256.5,68.5 Q230,49 230,16 Q230,-16 256.5,-36 Q283,-56 320.5,-66.5 Q358,-77 398.5,-80.5 Q439,-84 468,-84 Q496,-84 537,-80.5 Q578,-77 615.5,-66.5 Q653,-56 680,-36 Q707,-16 707,16 M470,437 Q441,437 407.5,439.5 Q374,442 341,450 L341,309 L598,309 L598,451 Q565,443 532,440 Q499,437 470,437"/> 
            <glyph glyph-name="운" unicode="&#xC6B4;" horiz-adv-x="910" d=" M470,411 Q422,411 367.5,418.5 Q313,426 266.5,446 Q220,466 189.5,501 Q159,536 159,590 Q159,644 189.5,678.5 Q220,713 266.5,733 Q313,753 367.5,760.5 Q422,768 470,768 Q519,768 574,759 Q629,750 675,729 Q721,708 751,674 Q781,640 781,590 Q781,539 750.5,505 Q720,471 674,450 Q628,429 573.5,420 Q519,411 470,411 M470,706 Q437,706 395.5,701.5 Q354,697 318,684 Q282,671 257,648.5 Q232,626 232,589 Q232,552 257,529 Q282,506 318,493.5 Q354,481 395.5,476.5 Q437,472 470,472 Q503,472 544,476.5 Q585,481 621.5,493.5 Q658,506 683,529 Q708,552 708,589 Q708,626 683,648.5 Q658,671 621.5,684 Q585,697 543.5,701.5 Q502,706 470,706 M455,49 Q450,49 446,53.5 Q442,58 442,64 L442,268 L45,268 Q39,268 34.5,272 Q30,276 30,281 L30,315 Q30,321 34.5,324.5 Q39,328 45,328 L895,328 Q900,328 905,324.5 Q910,321 910,315 L910,281 Q910,276 905,272 Q900,268 895,268 L511,268 L511,64 Q511,58 507.5,53.5 Q504,49 498,49 M802,-116 Q792,-122 787,-122 L236,-122 Q189,-122 174.5,-102.5 Q160,-83 160,-42 L160,157 Q160,171 174,171 L215,171 Q229,171 229,157 L229,-41 Q229,-55 233.5,-58.5 Q238,-62 252,-62 L787,-62 Q792,-62 797,-65.5 Q802,-69 802,-74 L802,-110"/> 
            <glyph glyph-name="원" unicode="&#xC6D0;" horiz-adv-x="829" d=" M569,578 Q569,540 552,507 Q535,474 504.5,449.5 Q474,425 432,410.5 Q390,396 341,396 Q293,396 252,410 Q211,424 181,449 Q151,474 134,507 Q117,540 117,578 Q117,620 134,654 Q151,688 181,712 Q211,736 252,748.5 Q293,761 341,761 Q387,761 428,748 Q469,735 500.5,711.5 Q532,688 550.5,654 Q569,620 569,578 M736,224 L736,768 Q736,782 750,782 L791,782 Q805,782 805,768 L805,53 Q805,39 791,39 L750,39 Q736,39 736,53 L736,164 L536,164 Q523,164 523,176 L523,212 Q523,224 536,224 M503,579 Q503,609 490,632 Q477,655 455,670.5 Q433,686 403.5,694 Q374,702 341,702 Q307,702 278,694 Q249,686 228,670 Q207,654 195,631.5 Q183,609 183,579 Q183,522 226.5,488 Q270,454 341,454 Q374,454 403.5,463.5 Q433,473 455,489.5 Q477,506 490,529 Q503,552 503,579 M321,91 Q316,91 312,95.5 Q308,100 308,106 L308,267 Q277,265 242,264 Q207,263 173.5,262 Q140,261 110.5,260.5 Q81,260 61,261 Q55,261 50.5,265 Q46,269 46,274 L46,308 Q46,314 50.5,317.5 Q55,321 61,321 Q90,321 130,321.5 Q170,322 212,323 Q254,324 293,325.5 Q332,327 359,329 Q394,331 437,335 Q480,339 523,344 Q566,349 604.5,354.5 Q643,360 669,365 Q674,366 678.5,363.5 Q683,361 684,357 L689,323 Q690,311 677,308 Q613,297 533.5,286.5 Q454,276 377,271 L377,106 Q377,100 373.5,95.5 Q370,91 364,91 M829,-116 Q819,-122 814,-122 L270,-122 Q223,-122 208.5,-104.5 Q194,-87 194,-46 L194,80 Q194,94 208,94 L249,94 Q263,94 263,80 L263,-41 Q263,-55 267.5,-58.5 Q272,-62 286,-62 L814,-62 Q819,-62 824,-65.5 Q829,-69 829,-74 L829,-110"/> 
            <glyph glyph-name="웨" unicode="&#xC6E8;" horiz-adv-x="838" d=" M481,532 Q481,491 465.5,456.5 Q450,422 422,396 Q394,370 355.5,355.5 Q317,341 272,341 Q228,341 190.5,355.5 Q153,370 125.5,395.5 Q98,421 82.5,456 Q67,491 67,532 Q67,578 82.5,613.5 Q98,649 125.5,673.5 Q153,698 190.5,711 Q228,724 272,724 Q314,724 351.5,711 Q389,698 418,673.5 Q447,649 464,613 Q481,577 481,532 M661,-88 Q661,-102 647,-102 L609,-102 Q595,-102 595,-88 L595,94 L434,94 Q421,94 421,106 L421,140 Q421,152 434,152 L595,152 L595,751 Q595,765 609,765 L647,765 Q661,765 661,751 M838,-126 Q838,-140 824,-140 L786,-140 Q772,-140 772,-126 L772,768 Q772,782 786,782 L824,782 Q838,782 838,768 M414,533 Q414,565 402.5,589 Q391,613 371.5,629.5 Q352,646 326,654 Q300,662 272,662 Q243,662 218,653.5 Q193,645 174,629 Q155,613 144.5,588.5 Q134,564 134,533 Q134,473 172.5,437.5 Q211,402 272,402 Q300,402 326,411.5 Q352,421 371.5,438.5 Q391,456 402.5,480 Q414,504 414,533 M514,299 Q519,300 523.5,297.5 Q528,295 529,291 L534,257 Q535,245 522,242 Q476,234 424,228.5 Q372,223 317,220 L317,-71 Q317,-77 313.5,-81.5 Q310,-86 304,-86 L261,-86 Q256,-86 252,-81.5 Q248,-77 248,-71 L248,218 Q191,216 135.5,213 Q80,210 37,212 Q31,212 26.5,216 Q22,220 22,225 L22,259 Q22,265 26.5,268.5 Q31,272 37,272 Q95,271 158,273 Q221,275 278,278 Q341,281 399.5,286 Q458,291 514,299"/> 
            <glyph glyph-name="육" unicode="&#xC721;" horiz-adv-x="910" d=" M470,436 Q422,436 367.5,443 Q313,450 266.5,469 Q220,488 189.5,521 Q159,554 159,606 Q159,657 189.5,690 Q220,723 266.5,741.5 Q313,760 367.5,767.5 Q422,775 470,775 Q519,775 574,766.5 Q629,758 675,738 Q721,718 751,686 Q781,654 781,606 Q781,558 750.5,525.5 Q720,493 674,473 Q628,453 573.5,444.5 Q519,436 470,436 M143,148 Q153,154 158,154 L281,154 L281,301 L45,301 Q39,301 34.5,305 Q30,309 30,314 L30,348 Q30,354 34.5,357.5 Q39,361 45,361 L895,361 Q900,361 905,357.5 Q910,354 910,348 L910,314 Q910,309 905,305 Q900,301 895,301 L657,301 L657,154 L704,154 Q751,154 765.5,136.5 Q780,119 780,78 L780,-136 Q780,-150 766,-150 L725,-150 Q711,-150 711,-136 L711,73 Q711,87 706.5,90.5 Q702,94 688,94 L158,94 Q153,94 148,97.5 Q143,101 143,106 L143,142 M470,712 Q437,712 395.5,708 Q354,704 318,693 Q282,682 257,661 Q232,640 232,606 Q232,572 257,551 Q282,530 318,518.5 Q354,507 395.5,503 Q437,499 470,499 Q503,499 544,503 Q585,507 621.5,518.5 Q658,530 683,551 Q708,572 708,606 Q708,640 683,661 Q658,682 621.5,693 Q585,704 543.5,708 Q502,712 470,712 M350,154 L588,154 L588,301 L350,301"/> 
            <glyph glyph-name="의" unicode="&#xC758;" horiz-adv-x="805" d=" M805,-140 L791,-140 L750,-140 Q736,-140 736,-126 L736,768 Q736,782 750,782 L791,782 Q805,782 805,768 L805,-126 M577,498 Q577,448 559,406.5 Q541,365 509,335 Q477,305 433,288.5 Q389,272 337,272 Q286,272 243,288.5 Q200,305 168.5,335 Q137,365 119,406.5 Q101,448 101,498 Q101,551 119,593 Q137,635 168.5,664.5 Q200,694 243,709.5 Q286,725 337,725 Q385,725 428.5,709.5 Q472,694 505,664.5 Q538,635 557.5,593 Q577,551 577,498 M507,499 Q507,540 493.5,571 Q480,602 456.5,622.5 Q433,643 402,653 Q371,663 337,663 Q301,663 271,652.5 Q241,642 218.5,621.5 Q196,601 183.5,570.5 Q171,540 171,499 Q171,422 216.5,377.5 Q262,333 337,333 Q371,333 402,344.5 Q433,356 456.5,377 Q480,398 493.5,429 Q507,460 507,499 M671,167 Q676,168 680.5,165.5 Q685,163 686,159 L691,125 Q692,113 679,110 Q646,104 607,98.5 Q568,93 526.5,88 Q485,83 443,79 Q401,75 361,72 Q330,70 288.5,68 Q247,66 204,64.5 Q161,63 122,62.5 Q83,62 58,63 Q52,63 47.5,67 Q43,71 43,76 L43,110 Q43,116 47.5,119.5 Q52,123 58,123 Q87,123 127.5,123.5 Q168,124 210.5,125 Q253,126 292.5,127.5 Q332,129 359,131 Q394,133 437.5,137 Q481,141 524,146 Q567,151 606,156.5 Q645,162 671,167"/> 
            <glyph glyph-name="이" unicode="&#xC774;" horiz-adv-x="805" d=" M571,401 Q571,345 557.5,288 Q544,231 515,185 Q486,139 440.5,109.5 Q395,80 331,80 Q265,80 219.5,109 Q174,138 146.5,184.5 Q119,231 107,288 Q95,345 95,401 Q95,460 107,517.5 Q119,575 146.5,621 Q174,667 219.5,695 Q265,723 331,723 Q395,723 440.5,695 Q486,667 515,621.5 Q544,576 557.5,518.5 Q571,461 571,401 M500,402 Q500,448 490.5,495 Q481,542 461,579.5 Q441,617 409,640.5 Q377,664 331,664 Q283,664 251.5,640.5 Q220,617 201,579.5 Q182,542 174,495 Q166,448 166,402 Q166,358 173.5,311.5 Q181,265 200,226.5 Q219,188 251,163.5 Q283,139 331,139 Q377,139 409,163.5 Q441,188 461,226.5 Q481,265 490.5,311.5 Q500,358 500,402 M805,-140 L791,-140 L750,-140 Q736,-140 736,-126 L736,768 Q736,782 750,782 L791,782 Q805,782 805,768 L805,-126"/> 
            <glyph glyph-name="인" unicode="&#xC778;" horiz-adv-x="835" d=" M805,116 L791,116 L750,116 Q736,116 736,130 L736,768 Q736,782 750,782 L791,782 Q805,782 805,768 L805,130 M835,-116 Q825,-122 820,-122 L319,-122 Q272,-122 257.5,-104.5 Q243,-87 243,-46 L243,150 Q243,164 257,164 L298,164 Q312,164 312,150 L312,-41 Q312,-55 316.5,-58.5 Q321,-62 335,-62 L820,-62 Q825,-62 830,-65.5 Q835,-69 835,-74 L835,-110 M560,505 Q560,453 542,409.5 Q524,366 492,335 Q460,304 416.5,286.5 Q373,269 322,269 Q273,269 230,286 Q187,303 155.5,334.5 Q124,366 106,409 Q88,452 88,505 Q88,560 106,604 Q124,648 155.5,679 Q187,710 230,726 Q273,742 322,742 Q368,742 411,726 Q454,710 487,679.5 Q520,649 540,605 Q560,561 560,505 M490,506 Q490,548 476.5,580.5 Q463,613 440,634.5 Q417,656 386.5,667 Q356,678 322,678 Q287,678 257.5,667 Q228,656 205.5,634.5 Q183,613 170.5,580.5 Q158,548 158,506 Q158,466 170,434 Q182,402 204,379.5 Q226,357 256,344.5 Q286,332 322,332 Q356,332 386.5,344.5 Q417,357 440,379.5 Q463,402 476.5,434 Q490,466 490,506"/> 
            <glyph glyph-name="일" unicode="&#xC77C;" horiz-adv-x="826" d=" M805,299 L791,299 L750,299 Q736,299 736,313 L736,768 Q736,782 750,782 L791,782 Q805,782 805,768 L805,313 M557,542 Q557,495 538.5,455.5 Q520,416 488,387 Q456,358 413,341.5 Q370,325 321,325 Q273,325 231.5,341 Q190,357 158.5,385.5 Q127,414 109,454 Q91,494 91,542 Q91,593 109,633.5 Q127,674 158.5,702 Q190,730 231.5,745 Q273,760 321,760 Q366,760 408.5,745 Q451,730 484,702 Q517,674 537,633.5 Q557,593 557,542 M487,543 Q487,580 473,609 Q459,638 436,657 Q413,676 383,686 Q353,696 321,696 Q288,696 258.5,686.5 Q229,677 207.5,658 Q186,639 173.5,610 Q161,581 161,543 Q161,507 173,478.5 Q185,450 206.5,429.5 Q228,409 257,398.5 Q286,388 321,388 Q353,388 383,398.5 Q413,409 436,429 Q459,449 473,478 Q487,507 487,543 M826,-131 Q826,-136 821.5,-139.5 Q817,-143 813,-143 L310,-143 Q263,-143 248.5,-125.5 Q234,-108 234,-66 L234,9 Q234,51 251.5,65.5 Q269,80 314,80 L714,80 Q728,80 732,84 Q736,88 736,103 L736,160 Q736,175 732.5,179 Q729,183 715,183 L246,183 Q241,183 236.5,186 Q232,189 232,194 L232,230 Q232,235 236.5,238 Q241,241 246,241 L726,241 Q750,241 765,237.5 Q780,234 789,226 Q798,218 801.5,203.5 Q805,189 805,168 L805,93 Q805,51 787.5,36.5 Q770,22 725,22 L324,22 Q310,22 306.5,18 Q303,14 303,-1 L303,-62 Q303,-76 307,-80.5 Q311,-85 325,-85 L812,-85 Q817,-85 821.5,-88 Q826,-91 826,-96"/> 
            <glyph glyph-name="저" unicode="&#xC800;" horiz-adv-x="805" d=" M588,134 Q585,129 580.5,128 Q576,127 568,133 Q544,151 517,174.5 Q490,198 464,224.5 Q438,251 413,279.5 Q388,308 367,336 Q317,273 253,215.5 Q189,158 107,101 Q102,98 97,96.5 Q92,95 89,99 L65,130 Q61,135 62,140.5 Q63,146 67,149 Q227,262 316.5,378 Q406,494 441,620 Q445,634 441.5,640.5 Q438,647 424,647 L121,647 Q109,647 109,660 L109,695 Q109,707 123,707 L451,707 Q503,707 517,689 Q531,671 517,625 Q478,497 407,390 Q430,358 456,327 Q482,296 508,268.5 Q534,241 560,218.5 Q586,196 609,181 Q614,177 614,172 Q614,167 611,163 M805,-140 L791,-140 L750,-140 Q736,-140 736,-126 L736,396 L547,396 Q534,396 534,408 L534,444 Q534,456 547,456 L736,456 L736,768 Q736,782 750,782 L791,782 Q805,782 805,768 L805,-126"/> 
            <glyph glyph-name="전" unicode="&#xC804;" horiz-adv-x="836" d=" M517,631 Q503,589 477,546 Q451,503 416,461 Q456,414 508.5,372.5 Q561,331 612,304 Q625,298 618,285 L595,251 Q592,246 586,245.5 Q580,245 575,248 Q524,276 471.5,320 Q419,364 374,413 Q317,353 249,303 Q181,253 112,221 Q107,219 102,217.5 Q97,216 94,221 L74,256 Q71,261 73,266.5 Q75,272 80,274 Q198,334 291.5,423 Q385,512 441,627 Q448,641 443,647 Q438,653 424,653 L131,653 Q119,653 119,666 L119,701 Q119,713 131,713 L451,713 Q503,713 518,694.5 Q533,676 517,631 M736,515 L736,768 Q736,782 750,782 L791,782 Q805,782 805,768 L805,122 Q805,108 791,108 L750,108 Q736,108 736,122 L736,457 L547,457 Q534,457 534,469 L534,503 Q534,515 547,515 M836,-116 Q826,-122 821,-122 L315,-122 Q268,-122 253.5,-104.5 Q239,-87 239,-46 L239,144 Q239,158 253,158 L294,158 Q308,158 308,144 L308,-41 Q308,-55 312.5,-58.5 Q317,-62 331,-62 L821,-62 Q826,-62 831,-65.5 Q836,-69 836,-74 L836,-110"/> 
            <glyph glyph-name="정" unicode="&#xC815;" horiz-adv-x="809" d=" M809,39 Q809,-4 786,-38 Q763,-72 723.5,-95.5 Q684,-119 631.5,-131.5 Q579,-144 519,-144 Q454,-144 401,-131.5 Q348,-119 310,-95.5 Q272,-72 251,-38 Q230,-4 230,39 Q230,81 251,114.5 Q272,148 310,171.5 Q348,195 401,207.5 Q454,220 519,220 Q579,220 631.5,207.5 Q684,195 723.5,172 Q763,149 786,115.5 Q809,82 809,39 M738,36 Q738,66 720,89 Q702,112 671.5,127.5 Q641,143 601,151.5 Q561,160 518,160 Q470,160 430,151.5 Q390,143 361.5,127.5 Q333,112 317,89 Q301,66 301,36 Q301,7 317,-15.5 Q333,-38 361.5,-53 Q390,-68 430,-76 Q470,-84 518,-84 Q561,-84 601,-76 Q641,-68 671.5,-53 Q702,-38 720,-15.5 Q738,7 738,36 M517,651 Q503,610 477.5,570 Q452,530 417,491 Q451,455 501,422.5 Q551,390 610,365 Q618,362 619,356.5 Q620,351 617,346 L597,310 Q594,305 588,304.5 Q582,304 577,306 Q555,316 529.5,330 Q504,344 477,362 Q450,380 423.5,401 Q397,422 374,445 Q317,389 248.5,343 Q180,297 110,266 Q105,264 100,263 Q95,262 92,267 L72,302 Q69,307 71.5,312.5 Q74,318 79,320 Q208,382 299,462 Q390,542 441,647 Q448,661 443,667 Q438,673 424,673 L131,673 Q119,673 119,686 L119,721 Q119,733 131,733 L451,733 Q503,733 518,714.5 Q533,696 517,651 M736,550 L736,768 Q736,782 750,782 L791,782 Q805,782 805,768 L805,242 Q805,228 791,228 L750,228 Q736,228 736,242 L736,490 L551,490 Q538,490 538,502 L538,538 Q538,550 551,550"/> 
            <glyph glyph-name="지" unicode="&#xC9C0;" horiz-adv-x="805" d=" M598,134 Q595,129 590.5,128 Q586,127 578,133 Q554,151 527,174.5 Q500,198 474,224.5 Q448,251 423,279.5 Q398,308 377,336 Q327,273 263,215.5 Q199,158 117,101 Q112,98 107,96.5 Q102,95 99,99 L75,130 Q71,135 72,140.5 Q73,146 77,149 Q237,262 326.5,378 Q416,494 451,620 Q455,634 451.5,640.5 Q448,647 434,647 L131,647 Q119,647 119,660 L119,695 Q119,707 133,707 L461,707 Q513,707 527,689 Q541,671 527,625 Q488,497 417,390 Q440,358 466,327 Q492,296 518,268.5 Q544,241 570,218.5 Q596,196 619,181 Q624,177 624,172 Q624,167 621,163 M805,-140 L791,-140 L750,-140 Q736,-140 736,-126 L736,768 Q736,782 750,782 L791,782 Q805,782 805,768 L805,-126"/> 
            <glyph glyph-name="천" unicode="&#xCC9C;" horiz-adv-x="836" d=" M587,215 Q584,208 579.5,206 Q575,204 566,208 Q514,232 462.5,265 Q411,298 364,340 Q260,250 124,190 Q119,188 114,187.5 Q109,187 106,192 L88,228 Q85,233 87.5,238 Q90,243 95,245 Q209,299 299.5,372 Q390,445 452,540 Q460,553 454.5,559.5 Q449,566 435,566 L132,566 Q120,566 120,579 L120,614 Q120,626 132,626 L462,626 Q514,626 532.5,606 Q551,586 528,544 Q478,455 410,384 Q453,345 501,314.5 Q549,284 596,265 Q602,263 604,257.5 Q606,252 604,247 M736,456 L736,768 Q736,782 750,782 L791,782 Q805,782 805,768 L805,116 Q805,102 791,102 L750,102 Q736,102 736,116 L736,396 L570,396 Q557,396 557,408 L557,444 Q557,456 570,456 M836,-116 Q826,-122 821,-122 L312,-122 Q265,-122 250.5,-104.5 Q236,-87 236,-46 L236,125 Q236,139 250,139 L291,139 Q305,139 305,125 L305,-41 Q305,-55 309.5,-58.5 Q314,-62 328,-62 L821,-62 Q826,-62 831,-65.5 Q836,-69 836,-74 L836,-110 M458,757 L458,743 L458,711 Q458,696 443,696 L217,696 Q202,696 202,711 L202,743 Q202,757 217,757 L443,757"/> 
            <glyph glyph-name="첫" unicode="&#xCCAB;" horiz-adv-x="868" d=" M596,234 Q591,222 575,227 Q521,250 469,283 Q417,316 369,358 Q269,272 124,208 Q110,203 105,212 L88,246 Q85,251 87.5,256 Q90,261 95,263 Q225,323 312.5,393 Q400,463 452,545 Q460,558 454.5,564.5 Q449,571 435,571 L132,571 Q120,571 120,584 L120,619 Q120,631 132,631 L462,631 Q514,631 533.5,611 Q553,591 528,549 Q477,465 415,400 Q459,362 507.5,332.5 Q556,303 604,285 Q618,280 612,267 M540,167 Q540,154 535,137 Q544,113 560,94 Q608,30 687.5,-13.5 Q767,-57 860,-69 Q866,-70 867,-75.5 Q868,-81 866,-86 L852,-120 Q850,-125 846.5,-127.5 Q843,-130 833,-128 Q616,-82 502,72 Q456,6 374,-47.5 Q292,-101 185,-133 Q169,-138 165,-128 L151,-91 Q149,-86 150.5,-80 Q152,-74 159,-72 Q223,-53 272.5,-31.5 Q322,-10 359.5,15.5 Q397,41 423,71.5 Q449,102 466,139 Q468,144 469.5,154.5 Q471,165 472,173 Q473,181 476,183 Q479,185 484,185 L531,181 Q540,180 540,167 M736,458 L736,768 Q736,782 750,782 L791,782 Q805,782 805,768 L805,167 Q805,153 791,153 L750,153 Q736,153 736,167 L736,398 L570,398 Q557,398 557,410 L557,446 Q557,458 570,458 M458,762 L458,748 L458,716 Q458,701 443,701 L217,701 Q202,701 202,716 L202,748 Q202,762 217,762 L443,762"/> 
            <glyph glyph-name="체" unicode="&#xCCB4;" horiz-adv-x="838" d=" M443,502 Q426,457 403.5,414.5 Q381,372 353,332 Q392,281 437.5,237.5 Q483,194 528,165 Q539,157 529,146 L504,114 Q499,108 495,108 Q491,108 483,114 Q463,129 441,148 Q419,167 397,189 Q375,211 353.5,234.5 Q332,258 313,281 Q268,227 215,181 Q162,135 104,99 Q100,96 94.5,96 Q89,96 87,98 L62,130 Q59,135 61,140.5 Q63,146 67,149 Q121,183 168.5,225.5 Q216,268 255,313.5 Q294,359 322.5,406 Q351,453 367,498 Q377,524 350,524 L107,524 Q95,524 95,537 L95,572 Q95,584 109,584 L377,584 Q429,584 444.5,565.5 Q460,547 443,502 M595,391 L595,751 Q595,765 609,765 L647,765 Q661,765 661,751 L661,-88 Q661,-102 647,-102 L609,-102 Q595,-102 595,-88 L595,331 L472,331 Q466,331 461.5,335 Q457,339 457,344 L457,378 Q457,384 461.5,387.5 Q466,391 472,391 M838,-126 Q838,-140 824,-140 L786,-140 Q772,-140 772,-126 L772,768 Q772,782 786,782 L824,782 Q838,782 838,768 M387,728 L387,714 L387,682 Q387,667 372,667 L185,667 Q170,667 170,682 L170,714 Q170,728 185,728 L372,728"/> 
            <glyph glyph-name="추" unicode="&#xCD94;" horiz-adv-x="910" d=" M704,547 Q681,523 642,497 Q603,471 553,445 Q583,436 618.5,425 Q654,414 690,404 Q726,394 760,385.5 Q794,377 820,372 Q833,369 829,358 L817,322 Q814,311 799,314 Q770,320 730,330.5 Q690,341 646,354 Q602,367 557.5,381 Q513,395 474,408 Q391,372 300,343.5 Q209,315 130,303 Q121,301 117.5,303 Q114,305 112,313 L103,345 Q101,353 103.5,357 Q106,361 111,362 Q171,372 243.5,393 Q316,414 386.5,441 Q457,468 519.5,499 Q582,530 622,560 Q633,568 635,577.5 Q637,587 621,587 L189,587 Q176,587 176,600 L176,635 Q176,647 189,647 L648,647 Q798,647 704,547 M446,-134 Q441,-134 437,-129.5 Q433,-125 433,-119 L433,160 L45,160 Q39,160 34.5,164 Q30,168 30,173 L30,207 Q30,213 34.5,216.5 Q39,220 45,220 L895,220 Q900,220 905,216.5 Q910,213 910,207 L910,173 Q910,168 905,164 Q900,160 895,160 L502,160 L502,-119 Q502,-125 498.5,-129.5 Q495,-134 489,-134 M611,782 L611,768 L611,736 Q611,721 596,721 L327,721 Q312,721 312,736 L312,768 Q312,782 327,782 L596,782"/> 
            <glyph glyph-name="카" unicode="&#xCE74;" horiz-adv-x="923" d=" M96,460 Q126,460 158,461 Q190,462 220.5,463 Q251,464 277.5,465 Q304,466 322,467 Q328,467 338.5,468 Q349,469 361,469.5 Q373,470 385.5,471 Q398,472 407,474 Q432,544 440,621 Q442,636 436,641.5 Q430,647 416,647 L111,647 Q99,647 99,660 L99,695 Q99,707 111,707 L435,707 Q482,707 497,689.5 Q512,672 510,635 Q505,549 476,467.5 Q447,386 395.5,312.5 Q344,239 271.5,176 Q199,113 107,64 Q94,57 88,67 L66,102 Q59,114 70,119 Q179,176 256.5,250 Q334,324 379,412 Q365,410 351,409.5 Q337,409 328,409 Q304,408 274.5,407 Q245,406 214.5,405 Q184,404 153.5,403 Q123,402 96,402 Q83,402 83,414 L83,448 Q83,460 96,460 M770,-140 L756,-140 L715,-140 Q701,-140 701,-126 L701,768 Q701,782 715,782 L756,782 Q770,782 770,768 L770,415 L908,415 Q914,415 918.5,411.5 Q923,408 923,402 L923,368 Q923,363 918.5,359 Q914,355 908,355 L770,355 L770,-126"/> 
            <glyph glyph-name="코" unicode="&#xCF54;" horiz-adv-x="910" d=" M179,469 Q199,469 229.5,469 Q260,469 295.5,469.5 Q331,470 368.5,470.5 Q406,471 438.5,471.5 Q471,472 497,472 Q523,472 535,473 Q541,473 564.5,474 Q588,475 616.5,476 Q645,477 672,478.5 Q699,480 712,482 Q714,527 714,568.5 Q714,610 712,643 Q711,657 707,660.5 Q703,664 689,664 L175,664 Q170,664 165,667.5 Q160,671 160,676 L160,712 Q160,718 165,721 Q170,724 175,724 L704,724 Q728,724 742.5,719 Q757,714 765,704.5 Q773,695 776,680 Q779,665 780,644 Q781,601 779.5,546 Q778,491 773.5,433.5 Q769,376 762.5,321 Q756,266 748,224 Q747,218 743.5,213.5 Q740,209 734,210 L693,215 Q686,216 683,221.5 Q680,227 682,233 Q690,267 697,317 Q704,367 708,423 Q694,421 669.5,420 Q645,419 618.5,417.5 Q592,416 570,415.5 Q548,415 541,415 Q525,414 496.5,414 Q468,414 434,413.5 Q400,413 362.5,412.5 Q325,412 290,411.5 Q255,411 226,411 Q197,411 179,411 Q166,411 166,423 L166,457 Q166,469 179,469 M462,332 Q470,323 470,317 L470,78 L895,78 Q900,78 905,74.5 Q910,71 910,65 L910,31 Q910,26 905,22 Q900,18 895,18 L45,18 Q39,18 34.5,22 Q30,26 30,31 L30,65 Q30,71 34.5,74.5 Q39,78 45,78 L401,78 L401,317 Q401,323 404.5,327.5 Q408,332 414,332 L457,332"/> 
            <glyph glyph-name="쿠" unicode="&#xCFE0;" horiz-adv-x="910" d=" M151,748 Q161,754 166,754 L695,754 Q719,754 733.5,749 Q748,744 756,734.5 Q764,725 767.5,710 Q771,695 771,674 Q773,596 761.5,506.5 Q750,417 730,323 L895,323 Q900,323 905,319.5 Q910,316 910,310 L910,276 Q910,271 905,267 Q900,263 895,263 L502,263 L502,-119 Q502,-125 498.5,-129.5 Q495,-134 489,-134 L446,-134 Q441,-134 437,-129.5 Q433,-125 433,-119 L433,263 L45,263 Q39,263 34.5,267 Q30,271 30,276 L30,310 Q30,316 34.5,319.5 Q39,323 45,323 L662,323 Q671,357 679,399 Q687,441 693,486 Q675,484 650,483 Q625,482 601,481 Q577,480 557.5,479.5 Q538,479 531,479 Q515,478 486.5,478 Q458,478 424,477.5 Q390,477 352.5,476.5 Q315,476 280,475.5 Q245,475 216,475 Q187,475 169,475 Q156,475 156,487 L156,521 Q156,533 169,533 Q189,533 219.5,533 Q250,533 285.5,533.5 Q321,534 358.5,534.5 Q396,535 428.5,535.5 Q461,536 487,536 Q513,536 525,537 Q531,537 552,538 Q573,539 599.5,539.5 Q626,540 653.5,541 Q681,542 699,544 Q702,583 703.5,616.5 Q705,650 703,673 Q701,687 697.5,690.5 Q694,694 680,694 L166,694 Q161,694 156,697.5 Q151,701 151,706 L151,742"/> 
            <glyph glyph-name="테" unicode="&#xD14C;" horiz-adv-x="838" d=" M390,384 Q331,379 286.5,378 Q242,377 192,378 L145,378 L145,193 Q145,178 150,172.5 Q155,167 169,167 Q254,165 335,173 Q416,181 491,197 Q507,200 510,186 L515,157 Q517,149 513,145 Q509,141 503,139 Q422,122 330.5,112.5 Q239,103 154,105 Q109,106 92.5,126 Q76,146 76,188 L76,632 Q76,674 92,688 Q108,702 152,702 L425,702 Q438,702 438,690 L438,654 Q438,642 425,642 L165,642 Q151,642 148,638.5 Q145,635 145,620 L145,436 L192,436 Q217,436 240,436 Q263,436 286,437 Q309,438 334.5,439 Q360,440 390,442 Q396,443 399.5,439 Q403,435 403,430 L403,396 Q403,386 390,384 M661,-88 Q661,-102 647,-102 L609,-102 Q595,-102 595,-88 L595,390 L468,390 Q462,390 457.5,394 Q453,398 453,403 L453,437 Q453,443 457.5,446.5 Q462,450 468,450 L595,450 L595,751 Q595,765 609,765 L647,765 Q661,765 661,751 M838,-126 Q838,-140 824,-140 L786,-140 Q772,-140 772,-126 L772,768 Q772,782 786,782 L824,782 Q838,782 838,768"/> 
            <glyph glyph-name="트" unicode="&#xD2B8;" horiz-adv-x="910" d=" M786,262 L773,262 L233,262 Q189,262 173,276.5 Q157,291 157,333 L157,658 Q157,700 173,714.5 Q189,729 233,729 L766,729 Q779,729 779,716 L779,683 Q779,669 766,669 L250,669 Q236,669 231,663.5 Q226,658 226,643 L226,525 L752,525 Q766,525 766,514 L766,480 Q766,467 753,467 L226,467 L226,348 Q226,334 231,328 Q236,322 250,322 L773,322 Q786,322 786,309 L786,276 M900,78 Q910,71 910,65 L910,31 Q910,26 905,22 Q900,18 895,18 L45,18 Q39,18 34.5,22 Q30,26 30,31 L30,65 Q30,71 34.5,74.5 Q39,78 45,78 L895,78"/> 
            <glyph glyph-name="티" unicode="&#xD2F0;" horiz-adv-x="805" d=" M513,385 Q486,383 448,381.5 Q410,380 370,379.5 Q330,379 292,378.5 Q254,378 226,379 L180,379 L180,192 Q180,177 185,171.5 Q190,166 204,166 Q246,165 297,166.5 Q348,168 401,171.5 Q454,175 506,181.5 Q558,188 601,196 Q618,199 621,185 L626,156 Q628,147 625,143.5 Q622,140 613,138 Q571,129 516.5,122.5 Q462,116 404,111.5 Q346,107 290,105 Q234,103 189,104 Q144,105 127.5,125 Q111,145 111,187 L111,637 Q111,679 127,693 Q143,707 187,707 L531,707 Q544,707 544,695 L544,659 Q544,647 531,647 L200,647 Q186,647 183,643.5 Q180,640 180,625 L180,437 L226,437 Q255,437 293,437 Q331,437 371,437.5 Q411,438 448.5,439.5 Q486,441 513,443 Q519,444 522.5,440 Q526,436 526,431 L526,397 Q526,387 513,385 M805,-140 L791,-140 L750,-140 Q736,-140 736,-126 L736,768 Q736,782 750,782 L791,782 Q805,782 805,768 L805,-126"/> 
            <glyph glyph-name="패" unicode="&#xD328;" horiz-adv-x="838" d=" M514,212 Q530,215 531,205 L537,170 Q539,158 524,156 Q469,147 414.5,140.5 Q360,134 287,130 Q231,127 167.5,126.5 Q104,126 45,128 Q39,128 34.5,132 Q30,136 30,141 L30,174 Q30,180 34.5,183.5 Q39,187 45,187 Q68,185 93,185 Q118,185 144,185 L144,639 L54,639 Q49,639 44.5,643 Q40,647 40,653 L40,684 Q40,690 44.5,694 Q49,698 54,698 L482,698 Q497,698 497,685 L497,652 Q497,639 482,639 L417,639 L417,197 Q440,199 463.5,203 Q487,207 514,212 M645,419 L772,419 L772,768 Q772,782 786,782 L824,782 Q838,782 838,768 L838,-126 Q838,-140 824,-140 L786,-140 Q772,-140 772,-126 L772,359 L645,359 L645,-88 Q645,-102 631,-102 L593,-102 Q579,-102 579,-88 L579,751 Q579,765 593,765 L631,765 Q645,765 645,751 M285,189 Q302,190 318,190.5 Q334,191 349,192 L349,639 L212,639 L212,186 Q230,186 248.5,187 Q267,188 285,189"/> 
            <glyph glyph-name="퍼" unicode="&#xD37C;" horiz-adv-x="805" d=" M618,212 Q634,215 635,205 L641,170 Q643,158 628,156 Q601,151 566,146.5 Q531,142 493.5,138 Q456,134 416.5,130.5 Q377,127 341,125 Q313,123 277.5,122 Q242,121 204.5,120.5 Q167,120 130.5,120 Q94,120 65,121 Q59,121 54.5,125 Q50,129 50,134 L50,167 Q50,173 54.5,176.5 Q59,180 65,180 Q88,178 117,178 Q146,178 178,179 L178,648 L72,648 Q67,648 62.5,652 Q58,656 58,662 L58,693 Q58,699 62.5,703 Q67,707 72,707 L570,707 Q585,707 585,694 L585,661 Q585,648 570,648 L493,648 L493,195 Q526,198 557.5,202.5 Q589,207 618,212 M339,184 Q360,185 381.5,186 Q403,187 425,189 L425,648 L246,648 L246,180 Q271,181 294.5,181.5 Q318,182 339,184 M805,-140 L791,-140 L750,-140 Q736,-140 736,-126 L736,399 L580,399 Q567,399 567,411 L567,447 Q567,459 580,459 L736,459 L736,768 Q736,782 750,782 L791,782 Q805,782 805,768 L805,-126"/> 
            <glyph glyph-name="페" unicode="&#xD398;" horiz-adv-x="838" d=" M514,212 Q530,215 531,205 L537,170 Q539,158 524,156 Q469,147 414.5,140.5 Q360,134 287,130 Q231,127 167.5,126.5 Q104,126 45,128 Q39,128 34.5,132 Q30,136 30,141 L30,174 Q30,180 34.5,183.5 Q39,187 45,187 Q68,185 93,185 Q118,185 144,185 L144,639 L54,639 Q49,639 44.5,643 Q40,647 40,653 L40,684 Q40,690 44.5,694 Q49,698 54,698 L482,698 Q497,698 497,685 L497,652 Q497,639 482,639 L417,639 L417,197 Q440,199 463.5,203 Q487,207 514,212 M595,456 L595,751 Q595,765 609,765 L647,765 Q661,765 661,751 L661,-88 Q661,-102 647,-102 L609,-102 Q595,-102 595,-88 L595,396 L484,396 Q471,396 471,408 L471,444 Q471,456 484,456 M285,189 Q302,190 318,190.5 Q334,191 349,192 L349,639 L212,639 L212,186 Q230,186 248.5,187 Q267,188 285,189 M838,-126 Q838,-140 824,-140 L786,-140 Q772,-140 772,-126 L772,768 Q772,782 786,782 L824,782 Q838,782 838,768"/> 
            <glyph glyph-name="폰" unicode="&#xD3F0;" horiz-adv-x="910" d=" M787,418 L772,418 L503,418 L503,280 L895,280 Q900,280 905,276.5 Q910,273 910,267 L910,233 Q910,228 905,224 Q900,220 895,220 L45,220 Q39,220 34.5,224 Q30,228 30,233 L30,267 Q30,273 34.5,276.5 Q39,280 45,280 L434,280 L434,418 L156,418 Q151,418 146.5,422 Q142,426 142,432 L142,463 Q142,469 146.5,473 Q151,477 156,477 L279,477 L279,696 L176,696 Q171,696 166.5,700 Q162,704 162,710 L162,741 Q162,747 166.5,751 Q171,755 176,755 L752,755 Q767,755 767,742 L767,709 Q767,696 752,696 L654,696 L654,477 L772,477 Q787,477 787,464 L787,431 M347,477 L586,477 L586,696 L347,696 M802,-116 Q792,-122 787,-122 L244,-122 Q197,-122 182.5,-102.5 Q168,-83 168,-42 L168,126 Q168,140 182,140 L223,140 Q237,140 237,126 L237,-41 Q237,-55 241.5,-58.5 Q246,-62 260,-62 L787,-62 Q792,-62 797,-65.5 Q802,-69 802,-74 L802,-110"/> 
            <glyph glyph-name="품" unicode="&#xD488;" horiz-adv-x="910" d=" M168,96 Q168,138 184,152.5 Q200,167 244,167 L434,167 L434,281 L45,281 Q39,281 34.5,285 Q30,289 30,294 L30,328 Q30,334 34.5,337.5 Q39,341 45,341 L895,341 Q900,341 905,337.5 Q910,334 910,328 L910,294 Q910,289 905,285 Q900,281 895,281 L503,281 L503,167 L694,167 Q718,167 732.5,164 Q747,161 755.5,153 Q764,145 767,131 Q770,117 770,96 L770,-61 Q770,-103 754,-117.5 Q738,-132 694,-132 L244,-132 Q220,-132 205.5,-129 Q191,-126 182.5,-117.5 Q174,-109 171,-95.5 Q168,-82 168,-61 M787,444 L772,444 L156,444 Q151,444 146.5,448 Q142,452 142,458 L142,489 Q142,495 146.5,499 Q151,503 156,503 L279,503 L279,703 L176,703 Q171,703 166.5,707 Q162,711 162,717 L162,748 Q162,754 166.5,758 Q171,762 176,762 L752,762 Q767,762 767,749 L767,716 Q767,703 752,703 L654,703 L654,503 L772,503 Q787,503 787,490 L787,457 M261,107 Q247,107 242,101.5 Q237,96 237,81 L237,-46 Q237,-61 242,-66.5 Q247,-72 261,-72 L677,-72 Q691,-72 696,-66.5 Q701,-61 701,-46 L701,81 Q701,96 696,101.5 Q691,107 677,107 M347,503 L586,503 L586,703 L347,703"/> 
            </font>
</defs>
</svg>
